G04 PROTEUS GERBER X2 FILE*
%TF.GenerationSoftware,Labcenter,Proteus,8.17-SP2-Build37159*%
%TF.CreationDate,2025-10-20T01:17:28+00:00*%
%TF.FileFunction,Legend,Top*%
%TF.FilePolarity,Positive*%
%TF.Part,Single*%
%TF.SameCoordinates,{dfd261b3-5dba-4516-bcbd-5d7d19192189}*%
%FSLAX45Y45*%
%MOMM*%
G01*
%TA.AperFunction,Profile*%
%ADD19C,0.101600*%
%TA.AperFunction,Material*%
%ADD20C,0.101600*%
%TA.AperFunction,NonMaterial*%
%ADD21C,0.101600*%
%TD.AperFunction*%
D19*
X+3390000Y+2940000D02*
X+3450453Y+2933904D01*
X+3506763Y+2916421D01*
X+3557722Y+2888758D01*
X+3602122Y+2852122D01*
X+3638758Y+2807722D01*
X+3666421Y+2756763D01*
X+3683904Y+2700453D01*
X+3690000Y+2640000D01*
X+3390000Y-2760000D02*
X+3450453Y-2753904D01*
X+3506763Y-2736421D01*
X+3557722Y-2708758D01*
X+3602122Y-2672122D01*
X+3638758Y-2627722D01*
X+3666421Y-2576763D01*
X+3683904Y-2520453D01*
X+3690000Y-2460000D01*
X-10810000Y-2460000D02*
X-10803904Y-2520453D01*
X-10786421Y-2576763D01*
X-10758758Y-2627722D01*
X-10722122Y-2672122D01*
X-10677722Y-2708758D01*
X-10626763Y-2736421D01*
X-10570453Y-2753904D01*
X-10510000Y-2760000D01*
X-10810000Y+2640000D02*
X-10803904Y+2700453D01*
X-10786421Y+2756763D01*
X-10758758Y+2807722D01*
X-10722122Y+2852122D01*
X-10677722Y+2888758D01*
X-10626763Y+2916421D01*
X-10570453Y+2933904D01*
X-10510000Y+2940000D01*
X-10810000Y-2460000D02*
X-10810000Y+2640000D01*
X-10510000Y+2940000D02*
X+3390000Y+2940000D01*
X+3690000Y+2640000D02*
X+3690000Y-2460000D01*
X+3390000Y-2760000D02*
X-10510000Y-2760000D01*
D20*
X+1990000Y+2620000D02*
X+2990000Y+2620000D01*
X+1990000Y+1870000D02*
X+2990000Y+1870000D01*
X+1990000Y+2620000D02*
X+1990000Y+1870000D01*
X+2990000Y+1870000D02*
X+2990000Y+2620000D01*
X+2383320Y+2065880D02*
X+2383320Y+2053180D01*
X+2396655Y+2040480D01*
X+2449995Y+2040480D01*
X+2463330Y+2053180D01*
X+2463330Y+2116680D01*
X+2516670Y+2091280D02*
X+2543340Y+2116680D01*
X+2543340Y+2040480D01*
X+1620000Y+1420000D02*
X+1620000Y+2620000D01*
X-1780000Y+2620000D01*
X-1780000Y+1420000D01*
X+1620000Y+1420000D02*
X-1780000Y+1420000D01*
X+770000Y+1420000D02*
X+770000Y+2620000D01*
X-80000Y+1420000D02*
X-80000Y+2620000D01*
X-930000Y+1420000D02*
X-930000Y+2620000D01*
X+1620000Y+2420000D02*
X-1780000Y+2420000D01*
X-186680Y+1338720D02*
X-186680Y+1326020D01*
X-173345Y+1313320D01*
X-120005Y+1313320D01*
X-106670Y+1326020D01*
X-106670Y+1389520D01*
X-66665Y+1376820D02*
X-53330Y+1389520D01*
X-13325Y+1389520D01*
X+10Y+1376820D01*
X+10Y+1364120D01*
X-13325Y+1351420D01*
X-53330Y+1351420D01*
X-66665Y+1338720D01*
X-66665Y+1313320D01*
X+10Y+1313320D01*
D21*
X+2350000Y+2735240D02*
X+2350000Y+2758100D01*
X+2326188Y+2780960D01*
X+2302375Y+2758100D01*
X+2302375Y+2735240D01*
X+2286500Y+2735240D02*
X+2238875Y+2735240D01*
X+2262688Y+2735240D02*
X+2262688Y+2780960D01*
X+2127750Y+2735240D02*
X+2143625Y+2750480D01*
X+2143625Y+2765720D01*
X+2127750Y+2780960D01*
X+2080125Y+2750480D02*
X+2064250Y+2735240D01*
X+2064250Y+2780960D01*
X+2016625Y+2750480D02*
X+2000750Y+2735240D01*
X+2000750Y+2780960D01*
X+1945188Y+2735240D02*
X+1929313Y+2750480D01*
X+1929313Y+2765720D01*
X+1945188Y+2780960D01*
X+3050000Y+2735240D02*
X+3050000Y+2758100D01*
X+3026188Y+2780960D01*
X+3002375Y+2758100D01*
X+3002375Y+2735240D01*
X+2986500Y+2735240D02*
X+2938875Y+2735240D01*
X+2962688Y+2735240D02*
X+2962688Y+2780960D01*
X+2827750Y+2735240D02*
X+2843625Y+2750480D01*
X+2843625Y+2765720D01*
X+2827750Y+2780960D01*
X+2780125Y+2750480D02*
X+2764250Y+2735240D01*
X+2764250Y+2780960D01*
X+2724563Y+2742860D02*
X+2716625Y+2735240D01*
X+2692813Y+2735240D01*
X+2684875Y+2742860D01*
X+2684875Y+2750480D01*
X+2692813Y+2758100D01*
X+2716625Y+2758100D01*
X+2724563Y+2765720D01*
X+2724563Y+2780960D01*
X+2684875Y+2780960D01*
X+2645188Y+2735240D02*
X+2629313Y+2750480D01*
X+2629313Y+2765720D01*
X+2645188Y+2780960D01*
D20*
X+3300000Y+600000D02*
X+3300000Y-1400000D01*
X+1400000Y+600000D02*
X+3300000Y+600000D01*
X+1400000Y+600000D02*
X+1400000Y+1000000D01*
X+200000Y+1000000D01*
X+100000Y+1000000D01*
X+100000Y-1700000D01*
X+3300000Y-1400000D02*
X+1800000Y-1400000D01*
X+1800000Y-1700000D01*
X+100000Y-1700000D02*
X+1800000Y-1700000D01*
X+3330480Y-456680D02*
X+3406680Y-456680D01*
X+3330480Y-376670D02*
X+3368580Y-416675D01*
X+3406680Y-376670D01*
X+3368580Y-456680D02*
X+3368580Y-416675D01*
X+3355880Y-323330D02*
X+3330480Y-296660D01*
X+3406680Y-296660D01*
D21*
X+1550000Y+2801280D02*
X+1550000Y+2740320D01*
X+1494438Y+2740320D01*
X+1483325Y+2750480D01*
X+1483325Y+2760640D01*
X+1494438Y+2770800D01*
X+1550000Y+2770800D01*
X+1494438Y+2770800D02*
X+1483325Y+2780960D01*
X+1483325Y+2801280D01*
X+1461100Y+2801280D02*
X+1461100Y+2740320D01*
X+1416650Y+2740320D01*
X+1394425Y+2760640D01*
X+1394425Y+2780960D01*
X+1416650Y+2801280D01*
X+1461100Y+2801280D01*
X+1327750Y+2740320D02*
X+1349975Y+2760640D01*
X+1349975Y+2780960D01*
X+1327750Y+2801280D01*
X+1283300Y+2740320D02*
X+1283300Y+2791120D01*
X+1272188Y+2801280D01*
X+1227738Y+2801280D01*
X+1216625Y+2791120D01*
X+1216625Y+2740320D01*
X+1183288Y+2750480D02*
X+1172175Y+2740320D01*
X+1138838Y+2740320D01*
X+1127725Y+2750480D01*
X+1127725Y+2760640D01*
X+1138838Y+2770800D01*
X+1172175Y+2770800D01*
X+1183288Y+2780960D01*
X+1183288Y+2801280D01*
X+1127725Y+2801280D01*
X+1072163Y+2740320D02*
X+1049938Y+2760640D01*
X+1049938Y+2780960D01*
X+1072163Y+2801280D01*
X+583325Y+2791120D02*
X+594438Y+2801280D01*
X+627775Y+2801280D01*
X+650000Y+2780960D01*
X+650000Y+2760640D01*
X+627775Y+2740320D01*
X+594438Y+2740320D01*
X+583325Y+2750480D01*
X-316675Y+2791120D02*
X-305562Y+2801280D01*
X-272225Y+2801280D01*
X-250000Y+2780960D01*
X-250000Y+2760640D01*
X-272225Y+2740320D01*
X-305562Y+2740320D01*
X-316675Y+2750480D01*
X-1216675Y+2740320D02*
X-1150000Y+2801280D01*
X-1150000Y+2740320D02*
X-1183337Y+2770800D01*
X-1305575Y+2801280D02*
X-1238900Y+2801280D01*
X-1238900Y+2740320D01*
X-1305575Y+2740320D01*
X-1238900Y+2770800D02*
X-1283350Y+2770800D01*
X-1372250Y+2740320D02*
X-1350025Y+2760640D01*
X-1350025Y+2780960D01*
X-1372250Y+2801280D01*
X-1416700Y+2740320D02*
X-1483375Y+2740320D01*
X-1416700Y+2801280D01*
X-1483375Y+2801280D01*
X-1516712Y+2750480D02*
X-1527825Y+2740320D01*
X-1561162Y+2740320D01*
X-1572275Y+2750480D01*
X-1572275Y+2760640D01*
X-1561162Y+2770800D01*
X-1527825Y+2770800D01*
X-1516712Y+2780960D01*
X-1516712Y+2801280D01*
X-1572275Y+2801280D01*
X-1627837Y+2740320D02*
X-1650062Y+2760640D01*
X-1650062Y+2780960D01*
X-1627837Y+2801280D01*
X-2450000Y+2740320D02*
X-2450000Y+2801280D01*
X-2516675Y+2801280D01*
X-2561125Y+2760640D02*
X-2583350Y+2740320D01*
X-2583350Y+2801280D01*
X-3350000Y+2801280D02*
X-3350000Y+2740320D01*
X-3416675Y+2801280D01*
X-3416675Y+2740320D01*
X-4250000Y+2801280D02*
X-4250000Y+2740320D01*
X-4305562Y+2740320D01*
X-4316675Y+2750480D01*
X-4316675Y+2760640D01*
X-4305562Y+2770800D01*
X-4316675Y+2780960D01*
X-4316675Y+2791120D01*
X-4305562Y+2801280D01*
X-4250000Y+2801280D01*
X-4250000Y+2770800D02*
X-4305562Y+2770800D01*
X-4338900Y+2801280D02*
X-4338900Y+2740320D01*
X-4394462Y+2740320D01*
X-4405575Y+2750480D01*
X-4405575Y+2760640D01*
X-4394462Y+2770800D01*
X-4338900Y+2770800D01*
X-4394462Y+2770800D02*
X-4405575Y+2780960D01*
X-4405575Y+2801280D01*
X-4472250Y+2740320D02*
X-4450025Y+2760640D01*
X-4450025Y+2780960D01*
X-4472250Y+2801280D01*
X-4516700Y+2740320D02*
X-4516700Y+2791120D01*
X-4527812Y+2801280D01*
X-4572262Y+2801280D01*
X-4583375Y+2791120D01*
X-4583375Y+2740320D01*
X-4627825Y+2760640D02*
X-4650050Y+2740320D01*
X-4650050Y+2801280D01*
X-4727837Y+2740320D02*
X-4750062Y+2760640D01*
X-4750062Y+2780960D01*
X-4727837Y+2801280D01*
X-5150000Y+2740320D02*
X-5216675Y+2740320D01*
X-5183337Y+2740320D02*
X-5183337Y+2801280D01*
X-5272237Y+2760640D02*
X-5272237Y+2801280D01*
X-5272237Y+2740320D02*
X-5272237Y+2740320D01*
X-5327800Y+2780960D02*
X-5394475Y+2780960D01*
X-5394475Y+2770800D01*
X-5383362Y+2760640D01*
X-5338912Y+2760640D01*
X-5327800Y+2770800D01*
X-5327800Y+2791120D01*
X-5338912Y+2801280D01*
X-5383362Y+2801280D01*
X-5416700Y+2801280D02*
X-5416700Y+2760640D01*
X-5416700Y+2770800D02*
X-5427812Y+2760640D01*
X-5472262Y+2760640D01*
X-5483375Y+2770800D01*
X-5505600Y+2801280D02*
X-5505600Y+2760640D01*
X-5505600Y+2770800D02*
X-5516712Y+2760640D01*
X-5561162Y+2760640D01*
X-5572275Y+2770800D01*
X-5605612Y+2760640D02*
X-5650062Y+2760640D01*
X-5661175Y+2770800D01*
X-5661175Y+2801280D01*
X-5605612Y+2801280D01*
X-5594500Y+2791120D01*
X-5605612Y+2780960D01*
X-5661175Y+2780960D01*
D20*
X-500000Y+1250000D02*
X-3900000Y+1250000D01*
X-500000Y+1250000D02*
X-500000Y-750000D01*
X-3900000Y+1250000D02*
X-3900000Y-750000D01*
X-500000Y-750000D02*
X-3900000Y-750000D01*
X-393320Y+143320D02*
X-469520Y+143320D01*
X-469520Y+223330D01*
X-431420Y+143320D02*
X-431420Y+196660D01*
X-444120Y+276670D02*
X-469520Y+303340D01*
X-393320Y+303340D01*
X-4427000Y-681000D02*
X-4173000Y-681000D01*
X-4173000Y+81000D01*
X-4427000Y+81000D01*
X-4427000Y-681000D01*
X-4554000Y-681000D01*
X-4554000Y+81000D01*
X-4427000Y+81000D01*
X-4427000Y-681000D02*
X-4554000Y-554000D01*
X-4427000Y-554000D02*
X-4554000Y-427000D01*
X-4427000Y-427000D02*
X-4554000Y-300000D01*
X-4427000Y-300000D02*
X-4554000Y-173000D01*
X-4427000Y-173000D02*
X-4554000Y-46000D01*
X-4427000Y-46000D02*
X-4554000Y+81000D01*
X-4660680Y-406680D02*
X-4597180Y-406680D01*
X-4584480Y-393345D01*
X-4584480Y-340005D01*
X-4597180Y-326670D01*
X-4660680Y-326670D01*
X-4660680Y-219990D02*
X-4660680Y-286665D01*
X-4635280Y-286665D01*
X-4635280Y-233325D01*
X-4622580Y-219990D01*
X-4597180Y-219990D01*
X-4584480Y-233325D01*
X-4584480Y-273330D01*
X-4597180Y-286665D01*
X-3950000Y-2609000D02*
X-1700000Y-2609000D01*
X-1700000Y-969000D01*
X-3950000Y-969000D01*
X-3950000Y-2609000D01*
X-2985020Y-938520D02*
X-2985020Y-862320D01*
X-2918345Y-862320D01*
X-2905010Y-875020D01*
X-2905010Y-887720D01*
X-2918345Y-900420D01*
X-2985020Y-900420D01*
X-2918345Y-900420D02*
X-2905010Y-913120D01*
X-2905010Y-938520D01*
X-2878340Y-862320D02*
X-2878340Y-938520D01*
X-2798330Y-938520D01*
X-2744990Y-887720D02*
X-2718320Y-862320D01*
X-2718320Y-938520D01*
X-7691460Y+438000D02*
X-4211460Y+438000D01*
X-7691460Y+1008000D02*
X-4211460Y+1008000D01*
X-4211460Y+438000D02*
X-4211460Y+1008000D01*
X-7691460Y+638000D02*
X-7660323Y+644288D01*
X-7634894Y+661434D01*
X-7617748Y+686863D01*
X-7611460Y+718000D01*
X-7617748Y+749137D01*
X-7634894Y+774566D01*
X-7660323Y+791712D01*
X-7691460Y+798000D01*
X-7691460Y+1008000D02*
X-7691460Y+798000D01*
X-7691460Y+438000D02*
X-7691460Y+638000D01*
X-4104780Y+612320D02*
X-4180980Y+612320D01*
X-4180980Y+678995D01*
X-4168280Y+692330D01*
X-4155580Y+692330D01*
X-4142880Y+678995D01*
X-4142880Y+612320D01*
X-4168280Y+732335D02*
X-4180980Y+745670D01*
X-4180980Y+785675D01*
X-4168280Y+799010D01*
X-4155580Y+799010D01*
X-4142880Y+785675D01*
X-4142880Y+745670D01*
X-4130180Y+732335D01*
X-4104780Y+732335D01*
X-4104780Y+799010D01*
X-9650000Y+2650000D02*
X-9650000Y+1650000D01*
X-10400000Y+2650000D02*
X-10400000Y+1650000D01*
X-9650000Y+2650000D02*
X-10400000Y+2650000D01*
X-10400000Y+1650000D02*
X-9650000Y+1650000D01*
X-9568720Y+2043320D02*
X-9556020Y+2043320D01*
X-9543320Y+2056655D01*
X-9543320Y+2109995D01*
X-9556020Y+2123330D01*
X-9619520Y+2123330D01*
X-9568720Y+2230010D02*
X-9568720Y+2150000D01*
X-9619520Y+2203340D01*
X-9543320Y+2203340D01*
X-9650000Y+1250000D02*
X-9650000Y+250000D01*
X-10400000Y+1250000D02*
X-10400000Y+250000D01*
X-9650000Y+1250000D02*
X-10400000Y+1250000D01*
X-10400000Y+250000D02*
X-9650000Y+250000D01*
X-9568720Y+643320D02*
X-9556020Y+643320D01*
X-9543320Y+656655D01*
X-9543320Y+709995D01*
X-9556020Y+723330D01*
X-9619520Y+723330D01*
X-9619520Y+830010D02*
X-9619520Y+763335D01*
X-9594120Y+763335D01*
X-9594120Y+816675D01*
X-9581420Y+830010D01*
X-9556020Y+830010D01*
X-9543320Y+816675D01*
X-9543320Y+776670D01*
X-9556020Y+763335D01*
X-9650000Y-150000D02*
X-9650000Y-1150000D01*
X-10400000Y-150000D02*
X-10400000Y-1150000D01*
X-9650000Y-150000D02*
X-10400000Y-150000D01*
X-10400000Y-1150000D02*
X-9650000Y-1150000D01*
X-9568720Y-756680D02*
X-9556020Y-756680D01*
X-9543320Y-743345D01*
X-9543320Y-690005D01*
X-9556020Y-676670D01*
X-9619520Y-676670D01*
X-9606820Y-569990D02*
X-9619520Y-583325D01*
X-9619520Y-623330D01*
X-9606820Y-636665D01*
X-9556020Y-636665D01*
X-9543320Y-623330D01*
X-9543320Y-583325D01*
X-9556020Y-569990D01*
X-9568720Y-569990D01*
X-9581420Y-583325D01*
X-9581420Y-636665D01*
X-9650000Y-1450000D02*
X-9650000Y-2450000D01*
X-10400000Y-1450000D02*
X-10400000Y-2450000D01*
X-9650000Y-1450000D02*
X-10400000Y-1450000D01*
X-10400000Y-2450000D02*
X-9650000Y-2450000D01*
X-9568720Y-2056680D02*
X-9556020Y-2056680D01*
X-9543320Y-2043345D01*
X-9543320Y-1990005D01*
X-9556020Y-1976670D01*
X-9619520Y-1976670D01*
X-9619520Y-1936665D02*
X-9619520Y-1869990D01*
X-9606820Y-1869990D01*
X-9543320Y-1936665D01*
X-8600000Y+1700000D02*
X-8700000Y+1700000D01*
X-8700000Y+1600000D02*
X-8700000Y+1800000D01*
X-9300000Y+1800000D01*
X-9300000Y+1600000D01*
X-8700000Y+1600000D01*
X-9300000Y+1700000D02*
X-9400000Y+1700000D01*
X-9106680Y+1693320D02*
X-9106680Y+1769520D01*
X-9040005Y+1769520D01*
X-9026670Y+1756820D01*
X-9026670Y+1744120D01*
X-9040005Y+1731420D01*
X-9106680Y+1731420D01*
X-9040005Y+1731420D02*
X-9026670Y+1718720D01*
X-9026670Y+1693320D01*
X-8973330Y+1731420D02*
X-8986665Y+1744120D01*
X-8986665Y+1756820D01*
X-8973330Y+1769520D01*
X-8933325Y+1769520D01*
X-8919990Y+1756820D01*
X-8919990Y+1744120D01*
X-8933325Y+1731420D01*
X-8973330Y+1731420D01*
X-8986665Y+1718720D01*
X-8986665Y+1706020D01*
X-8973330Y+1693320D01*
X-8933325Y+1693320D01*
X-8919990Y+1706020D01*
X-8919990Y+1718720D01*
X-8933325Y+1731420D01*
X-8600000Y+300000D02*
X-8700000Y+300000D01*
X-8700000Y+200000D02*
X-8700000Y+400000D01*
X-9300000Y+400000D01*
X-9300000Y+200000D01*
X-8700000Y+200000D01*
X-9300000Y+300000D02*
X-9400000Y+300000D01*
X-9106680Y+293320D02*
X-9106680Y+369520D01*
X-9040005Y+369520D01*
X-9026670Y+356820D01*
X-9026670Y+344120D01*
X-9040005Y+331420D01*
X-9106680Y+331420D01*
X-9040005Y+331420D02*
X-9026670Y+318720D01*
X-9026670Y+293320D01*
X-8986665Y+369520D02*
X-8919990Y+369520D01*
X-8919990Y+356820D01*
X-8986665Y+293320D01*
X-8600000Y-1100000D02*
X-8700000Y-1100000D01*
X-8700000Y-1200000D02*
X-8700000Y-1000000D01*
X-9300000Y-1000000D01*
X-9300000Y-1200000D01*
X-8700000Y-1200000D01*
X-9300000Y-1100000D02*
X-9400000Y-1100000D01*
X-9106680Y-1106680D02*
X-9106680Y-1030480D01*
X-9040005Y-1030480D01*
X-9026670Y-1043180D01*
X-9026670Y-1055880D01*
X-9040005Y-1068580D01*
X-9106680Y-1068580D01*
X-9040005Y-1068580D02*
X-9026670Y-1081280D01*
X-9026670Y-1106680D01*
X-8919990Y-1043180D02*
X-8933325Y-1030480D01*
X-8973330Y-1030480D01*
X-8986665Y-1043180D01*
X-8986665Y-1093980D01*
X-8973330Y-1106680D01*
X-8933325Y-1106680D01*
X-8919990Y-1093980D01*
X-8919990Y-1081280D01*
X-8933325Y-1068580D01*
X-8986665Y-1068580D01*
X-8600000Y-2500000D02*
X-8700000Y-2500000D01*
X-8700000Y-2600000D02*
X-8700000Y-2400000D01*
X-9300000Y-2400000D01*
X-9300000Y-2600000D01*
X-8700000Y-2600000D01*
X-9300000Y-2500000D02*
X-9400000Y-2500000D01*
X-9106680Y-2506680D02*
X-9106680Y-2430480D01*
X-9040005Y-2430480D01*
X-9026670Y-2443180D01*
X-9026670Y-2455880D01*
X-9040005Y-2468580D01*
X-9106680Y-2468580D01*
X-9040005Y-2468580D02*
X-9026670Y-2481280D01*
X-9026670Y-2506680D01*
X-8919990Y-2430480D02*
X-8986665Y-2430480D01*
X-8986665Y-2455880D01*
X-8933325Y-2455880D01*
X-8919990Y-2468580D01*
X-8919990Y-2493980D01*
X-8933325Y-2506680D01*
X-8973330Y-2506680D01*
X-8986665Y-2493980D01*
X-9287000Y+1048000D02*
X-9287000Y+1175000D01*
X-8779000Y+1175000D01*
X-8779000Y+667000D01*
X-9287000Y+667000D01*
X-9287000Y+794000D01*
X-9160000Y+921000D02*
X-9162436Y+946876D01*
X-9169485Y+970848D01*
X-9180762Y+992438D01*
X-9195878Y+1011170D01*
X-9214446Y+1026569D01*
X-9236081Y+1038158D01*
X-9260394Y+1045460D01*
X-9287000Y+1048000D01*
X-9160000Y+921000D02*
X-9162436Y+894394D01*
X-9169485Y+870081D01*
X-9180762Y+848446D01*
X-9195878Y+829878D01*
X-9214446Y+814762D01*
X-9236081Y+803485D01*
X-9260394Y+796436D01*
X-9287000Y+794000D01*
X-9393680Y+814320D02*
X-9330180Y+814320D01*
X-9317480Y+827655D01*
X-9317480Y+880995D01*
X-9330180Y+894330D01*
X-9393680Y+894330D01*
X-9380980Y+934335D02*
X-9393680Y+947670D01*
X-9393680Y+987675D01*
X-9380980Y+1001010D01*
X-9368280Y+1001010D01*
X-9355580Y+987675D01*
X-9342880Y+1001010D01*
X-9330180Y+1001010D01*
X-9317480Y+987675D01*
X-9317480Y+947670D01*
X-9330180Y+934335D01*
X-9355580Y+961005D02*
X-9355580Y+987675D01*
X-9281000Y-354000D02*
X-9281000Y-227000D01*
X-8773000Y-227000D01*
X-8773000Y-735000D01*
X-9281000Y-735000D01*
X-9281000Y-608000D01*
X-9154000Y-481000D02*
X-9156436Y-455124D01*
X-9163485Y-431152D01*
X-9174762Y-409562D01*
X-9189878Y-390830D01*
X-9208446Y-375431D01*
X-9230081Y-363842D01*
X-9254394Y-356540D01*
X-9281000Y-354000D01*
X-9154000Y-481000D02*
X-9156436Y-507606D01*
X-9163485Y-531919D01*
X-9174762Y-553554D01*
X-9189878Y-572122D01*
X-9208446Y-587238D01*
X-9230081Y-598515D01*
X-9254394Y-605564D01*
X-9281000Y-608000D01*
X-9387680Y-587680D02*
X-9324180Y-587680D01*
X-9311480Y-574345D01*
X-9311480Y-521005D01*
X-9324180Y-507670D01*
X-9387680Y-507670D01*
X-9374980Y-467665D02*
X-9387680Y-454330D01*
X-9387680Y-414325D01*
X-9374980Y-400990D01*
X-9362280Y-400990D01*
X-9349580Y-414325D01*
X-9349580Y-454330D01*
X-9336880Y-467665D01*
X-9311480Y-467665D01*
X-9311480Y-400990D01*
X-9281000Y-1754000D02*
X-9281000Y-1627000D01*
X-8773000Y-1627000D01*
X-8773000Y-2135000D01*
X-9281000Y-2135000D01*
X-9281000Y-2008000D01*
X-9154000Y-1881000D02*
X-9156436Y-1855124D01*
X-9163485Y-1831152D01*
X-9174762Y-1809562D01*
X-9189878Y-1790830D01*
X-9208446Y-1775431D01*
X-9230081Y-1763842D01*
X-9254394Y-1756540D01*
X-9281000Y-1754000D01*
X-9154000Y-1881000D02*
X-9156436Y-1907606D01*
X-9163485Y-1931919D01*
X-9174762Y-1953554D01*
X-9189878Y-1972122D01*
X-9208446Y-1987238D01*
X-9230081Y-1998515D01*
X-9254394Y-2005564D01*
X-9281000Y-2008000D01*
X-9387680Y-1987680D02*
X-9324180Y-1987680D01*
X-9311480Y-1974345D01*
X-9311480Y-1921005D01*
X-9324180Y-1907670D01*
X-9387680Y-1907670D01*
X-9362280Y-1854330D02*
X-9387680Y-1827660D01*
X-9311480Y-1827660D01*
X-8300000Y-1700000D02*
X-8300000Y-1800000D01*
X-8200000Y-1800000D02*
X-8400000Y-1800000D01*
X-8400000Y-2400000D01*
X-8200000Y-2400000D01*
X-8200000Y-1800000D01*
X-8300000Y-2400000D02*
X-8300000Y-2500000D01*
X-8293320Y-2206680D02*
X-8369520Y-2206680D01*
X-8369520Y-2140005D01*
X-8356820Y-2126670D01*
X-8344120Y-2126670D01*
X-8331420Y-2140005D01*
X-8331420Y-2206680D01*
X-8331420Y-2140005D02*
X-8318720Y-2126670D01*
X-8293320Y-2126670D01*
X-8318720Y-2019990D02*
X-8318720Y-2100000D01*
X-8369520Y-2046660D01*
X-8293320Y-2046660D01*
X-8000000Y-1700000D02*
X-8000000Y-1800000D01*
X-7900000Y-1800000D02*
X-8100000Y-1800000D01*
X-8100000Y-2400000D01*
X-7900000Y-2400000D01*
X-7900000Y-1800000D01*
X-8000000Y-2400000D02*
X-8000000Y-2500000D01*
X-7993320Y-2206680D02*
X-8069520Y-2206680D01*
X-8069520Y-2140005D01*
X-8056820Y-2126670D01*
X-8044120Y-2126670D01*
X-8031420Y-2140005D01*
X-8031420Y-2206680D01*
X-8031420Y-2140005D02*
X-8018720Y-2126670D01*
X-7993320Y-2126670D01*
X-8056820Y-2086665D02*
X-8069520Y-2073330D01*
X-8069520Y-2033325D01*
X-8056820Y-2019990D01*
X-8044120Y-2019990D01*
X-8031420Y-2033325D01*
X-8031420Y-2073330D01*
X-8018720Y-2086665D01*
X-7993320Y-2086665D01*
X-7993320Y-2019990D01*
X-7700000Y-1700000D02*
X-7700000Y-1800000D01*
X-7600000Y-1800000D02*
X-7800000Y-1800000D01*
X-7800000Y-2400000D01*
X-7600000Y-2400000D01*
X-7600000Y-1800000D01*
X-7700000Y-2400000D02*
X-7700000Y-2500000D01*
X-7693320Y-2206680D02*
X-7769520Y-2206680D01*
X-7769520Y-2140005D01*
X-7756820Y-2126670D01*
X-7744120Y-2126670D01*
X-7731420Y-2140005D01*
X-7731420Y-2206680D01*
X-7731420Y-2140005D02*
X-7718720Y-2126670D01*
X-7693320Y-2126670D01*
X-7756820Y-2086665D02*
X-7769520Y-2073330D01*
X-7769520Y-2033325D01*
X-7756820Y-2019990D01*
X-7744120Y-2019990D01*
X-7731420Y-2033325D01*
X-7718720Y-2019990D01*
X-7706020Y-2019990D01*
X-7693320Y-2033325D01*
X-7693320Y-2073330D01*
X-7706020Y-2086665D01*
X-7731420Y-2059995D02*
X-7731420Y-2033325D01*
X-7400000Y-1700000D02*
X-7400000Y-1800000D01*
X-7300000Y-1800000D02*
X-7500000Y-1800000D01*
X-7500000Y-2400000D01*
X-7300000Y-2400000D01*
X-7300000Y-1800000D01*
X-7400000Y-2400000D02*
X-7400000Y-2500000D01*
X-7193320Y-2206680D02*
X-7269520Y-2206680D01*
X-7269520Y-2140005D01*
X-7256820Y-2126670D01*
X-7244120Y-2126670D01*
X-7231420Y-2140005D01*
X-7231420Y-2206680D01*
X-7231420Y-2140005D02*
X-7218720Y-2126670D01*
X-7193320Y-2126670D01*
X-7244120Y-2073330D02*
X-7269520Y-2046660D01*
X-7193320Y-2046660D01*
X-4827000Y-1592000D02*
X-4827000Y-1465000D01*
X-4319000Y-1465000D01*
X-4319000Y-1973000D01*
X-4827000Y-1973000D01*
X-4827000Y-1846000D01*
X-4700000Y-1719000D02*
X-4702436Y-1693124D01*
X-4709485Y-1669152D01*
X-4720762Y-1647562D01*
X-4735878Y-1628830D01*
X-4754446Y-1613431D01*
X-4776081Y-1601842D01*
X-4800394Y-1594540D01*
X-4827000Y-1592000D01*
X-4700000Y-1719000D02*
X-4702436Y-1745606D01*
X-4709485Y-1769919D01*
X-4720762Y-1791554D01*
X-4735878Y-1810122D01*
X-4754446Y-1825238D01*
X-4776081Y-1836515D01*
X-4800394Y-1843564D01*
X-4827000Y-1846000D01*
X-4933680Y-1825680D02*
X-4870180Y-1825680D01*
X-4857480Y-1812345D01*
X-4857480Y-1759005D01*
X-4870180Y-1745670D01*
X-4933680Y-1745670D01*
X-4920980Y-1638990D02*
X-4933680Y-1652325D01*
X-4933680Y-1692330D01*
X-4920980Y-1705665D01*
X-4870180Y-1705665D01*
X-4857480Y-1692330D01*
X-4857480Y-1652325D01*
X-4870180Y-1638990D01*
X-4882880Y-1638990D01*
X-4895580Y-1652325D01*
X-4895580Y-1705665D01*
X-6750000Y-1950000D02*
X-6769460Y-1953930D01*
X-6785354Y-1964646D01*
X-6796070Y-1980540D01*
X-6800000Y-2000000D01*
X-6796070Y-2019460D01*
X-6785354Y-2035354D01*
X-6769460Y-2046070D01*
X-6750000Y-2050000D01*
X-6550000Y-1950000D02*
X-6530540Y-1953930D01*
X-6514646Y-1964646D01*
X-6503930Y-1980540D01*
X-6500000Y-2000000D01*
X-6503930Y-2019460D01*
X-6514646Y-2035354D01*
X-6530540Y-2046070D01*
X-6550000Y-2050000D01*
X-6750000Y-1950000D02*
X-6550000Y-1950000D01*
X-6550000Y-2050000D02*
X-6750000Y-2050000D01*
X-6800000Y-2000000D02*
X-6840000Y-2000000D01*
X-6500000Y-2000000D02*
X-6460000Y-2000000D01*
X-6676670Y-1906820D02*
X-6690005Y-1919520D01*
X-6730010Y-1919520D01*
X-6756680Y-1894120D01*
X-6756680Y-1868720D01*
X-6730010Y-1843320D01*
X-6690005Y-1843320D01*
X-6676670Y-1856020D01*
X-6623330Y-1868720D02*
X-6596660Y-1843320D01*
X-6596660Y-1919520D01*
X-6830000Y-2450000D02*
X-6835502Y-2481137D01*
X-6850505Y-2506566D01*
X-6872755Y-2523712D01*
X-6900000Y-2530000D01*
X-6927245Y-2523712D01*
X-6949495Y-2506566D01*
X-6964498Y-2481137D01*
X-6970000Y-2450000D01*
X-6830000Y-2200000D02*
X-6830000Y-2450000D01*
X-6970000Y-2200000D02*
X-6970000Y-2450000D01*
X-6830000Y-2200000D02*
X-6836288Y-2168863D01*
X-6853434Y-2143434D01*
X-6878863Y-2126288D01*
X-6910000Y-2120000D01*
X-6933352Y-2126288D01*
X-6952424Y-2143434D01*
X-6965284Y-2168863D01*
X-6970000Y-2200000D01*
X-6736020Y-2405010D02*
X-6723320Y-2418345D01*
X-6723320Y-2458350D01*
X-6748720Y-2485020D01*
X-6774120Y-2485020D01*
X-6799520Y-2458350D01*
X-6799520Y-2418345D01*
X-6786820Y-2405010D01*
X-6723320Y-2378340D02*
X-6774120Y-2378340D01*
X-6799520Y-2351670D01*
X-6799520Y-2325000D01*
X-6774120Y-2298330D01*
X-6723320Y-2298330D01*
X-6748720Y-2378340D02*
X-6748720Y-2298330D01*
X-6774120Y-2244990D02*
X-6799520Y-2218320D01*
X-6723320Y-2218320D01*
X-6330000Y-2450000D02*
X-6335502Y-2481137D01*
X-6350505Y-2506566D01*
X-6372755Y-2523712D01*
X-6400000Y-2530000D01*
X-6427245Y-2523712D01*
X-6449495Y-2506566D01*
X-6464498Y-2481137D01*
X-6470000Y-2450000D01*
X-6330000Y-2200000D02*
X-6330000Y-2450000D01*
X-6470000Y-2200000D02*
X-6470000Y-2450000D01*
X-6330000Y-2200000D02*
X-6336288Y-2168863D01*
X-6353434Y-2143434D01*
X-6378863Y-2126288D01*
X-6410000Y-2120000D01*
X-6433352Y-2126288D01*
X-6452424Y-2143434D01*
X-6465284Y-2168863D01*
X-6470000Y-2200000D01*
X-6236020Y-2405010D02*
X-6223320Y-2418345D01*
X-6223320Y-2458350D01*
X-6248720Y-2485020D01*
X-6274120Y-2485020D01*
X-6299520Y-2458350D01*
X-6299520Y-2418345D01*
X-6286820Y-2405010D01*
X-6223320Y-2378340D02*
X-6274120Y-2378340D01*
X-6299520Y-2351670D01*
X-6299520Y-2325000D01*
X-6274120Y-2298330D01*
X-6223320Y-2298330D01*
X-6248720Y-2378340D02*
X-6248720Y-2298330D01*
X-6286820Y-2258325D02*
X-6299520Y-2244990D01*
X-6299520Y-2204985D01*
X-6286820Y-2191650D01*
X-6274120Y-2191650D01*
X-6261420Y-2204985D01*
X-6261420Y-2244990D01*
X-6248720Y-2258325D01*
X-6223320Y-2258325D01*
X-6223320Y-2191650D01*
X-2270000Y+1430000D02*
X-2270000Y+2630000D01*
X-5670000Y+2630000D01*
X-5670000Y+1430000D01*
X-2270000Y+1430000D02*
X-5670000Y+1430000D01*
X-3120000Y+1430000D02*
X-3120000Y+2630000D01*
X-3970000Y+1430000D02*
X-3970000Y+2630000D01*
X-4820000Y+1430000D02*
X-4820000Y+2630000D01*
X-2270000Y+2430000D02*
X-5670000Y+2430000D01*
X-4076680Y+1348720D02*
X-4076680Y+1336020D01*
X-4063345Y+1323320D01*
X-4010005Y+1323320D01*
X-3996670Y+1336020D01*
X-3996670Y+1399520D01*
X-3956665Y+1386820D02*
X-3943330Y+1399520D01*
X-3903325Y+1399520D01*
X-3889990Y+1386820D01*
X-3889990Y+1374120D01*
X-3903325Y+1361420D01*
X-3889990Y+1348720D01*
X-3889990Y+1336020D01*
X-3903325Y+1323320D01*
X-3943330Y+1323320D01*
X-3956665Y+1336020D01*
X-3929995Y+1361420D02*
X-3903325Y+1361420D01*
X-9227000Y+2558000D02*
X-9227000Y+2685000D01*
X-8719000Y+2685000D01*
X-8719000Y+2177000D01*
X-9227000Y+2177000D01*
X-9227000Y+2304000D01*
X-9100000Y+2431000D02*
X-9102436Y+2456876D01*
X-9109485Y+2480848D01*
X-9120762Y+2502438D01*
X-9135878Y+2521170D01*
X-9154446Y+2536569D01*
X-9176081Y+2548158D01*
X-9200394Y+2555460D01*
X-9227000Y+2558000D01*
X-9100000Y+2431000D02*
X-9102436Y+2404394D01*
X-9109485Y+2380081D01*
X-9120762Y+2358446D01*
X-9135878Y+2339878D01*
X-9154446Y+2324762D01*
X-9176081Y+2313485D01*
X-9200394Y+2306436D01*
X-9227000Y+2304000D01*
X-9333680Y+2324320D02*
X-9270180Y+2324320D01*
X-9257480Y+2337655D01*
X-9257480Y+2390995D01*
X-9270180Y+2404330D01*
X-9333680Y+2404330D01*
X-9282880Y+2511010D02*
X-9282880Y+2431000D01*
X-9333680Y+2484340D01*
X-9257480Y+2484340D01*
X-5580000Y-2400000D02*
X-5480000Y-2400000D01*
X-5480000Y-2300000D02*
X-5480000Y-2500000D01*
X-4880000Y-2500000D01*
X-4880000Y-2300000D01*
X-5480000Y-2300000D01*
X-4880000Y-2400000D02*
X-4780000Y-2400000D01*
X-5316680Y-2459520D02*
X-5316680Y-2383320D01*
X-5250005Y-2383320D01*
X-5236670Y-2396020D01*
X-5236670Y-2408720D01*
X-5250005Y-2421420D01*
X-5316680Y-2421420D01*
X-5250005Y-2421420D02*
X-5236670Y-2434120D01*
X-5236670Y-2459520D01*
X-5129990Y-2408720D02*
X-5143325Y-2421420D01*
X-5183330Y-2421420D01*
X-5196665Y-2408720D01*
X-5196665Y-2396020D01*
X-5183330Y-2383320D01*
X-5143325Y-2383320D01*
X-5129990Y-2396020D01*
X-5129990Y-2446820D01*
X-5143325Y-2459520D01*
X-5183330Y-2459520D01*
M02*
