G04 PROTEUS GERBER X2 FILE*
%TF.GenerationSoftware,Labcenter,Proteus,8.17-SP2-Build37159*%
%TF.CreationDate,2025-10-20T01:17:28+00:00*%
%TF.FileFunction,Copper,L2,Bot*%
%TF.FilePolarity,Positive*%
%TF.Part,Single*%
%TF.SameCoordinates,{dfd261b3-5dba-4516-bcbd-5d7d19192189}*%
%FSLAX45Y45*%
%MOMM*%
G01*
%TA.AperFunction,Conductor*%
%ADD10C,1.016000*%
%ADD70C,5.080000*%
%ADD71C,1.524000*%
%TA.AperFunction,ViaPad*%
%ADD11C,1.524000*%
%TA.AperFunction,ComponentPad*%
%ADD12C,1.524000*%
%TA.AperFunction,ComponentPad*%
%ADD13C,2.540000*%
%TA.AperFunction,ComponentPad*%
%ADD14C,3.810000*%
%TA.AperFunction,ComponentPad*%
%ADD15R,2.032000X2.032000*%
%TA.AperFunction,ComponentPad*%
%ADD16R,1.270000X1.270000*%
%ADD17C,1.270000*%
%TA.AperFunction,ComponentPad*%
%ADD18C,1.016000*%
%TA.AperFunction,Profile*%
%ADD19C,0.101600*%
%TD.AperFunction*%
D10*
X-10000000Y-2200000D02*
X-9700000Y-2500000D01*
X-9500000Y-2500000D01*
X-8300000Y-2600000D02*
X-8000000Y-2600000D01*
X-7700000Y-2600000D01*
X-7400000Y-2600000D01*
X-7000000Y-2600000D01*
X-6900000Y-2500000D01*
X-6900000Y-2450000D01*
X-6400000Y-2450000D01*
X-10000000Y-900000D02*
X-9800000Y-1100000D01*
X-9500000Y-1100000D01*
X-10000000Y+500000D02*
X-9700000Y+500000D01*
X-9500000Y+300000D01*
X-10000000Y+1900000D02*
X-9700000Y+1900000D01*
X-9500000Y+1700000D01*
X-2280000Y-2400000D02*
X+1811241Y-2400000D01*
X+2404700Y-1806541D01*
X+2917205Y-1294036D01*
X+2917205Y-145122D01*
X+2700000Y+72083D01*
X+2700000Y+100000D01*
X-700000Y+1000000D02*
X+350000Y-50000D01*
X+600000Y-50000D01*
X+1842528Y-50000D01*
X+1850000Y-50000D01*
X+2700000Y-900000D01*
X-10000000Y+2400000D02*
X-9941930Y+2341930D01*
X-8996487Y+2341930D01*
X-8962972Y+2341930D01*
X-8844792Y+2223750D01*
X-8844792Y+2051208D01*
X-8846000Y+2050000D01*
X-9100000Y+2050000D02*
X-9100000Y+1937445D01*
X-8857139Y+1694584D01*
X-8505416Y+1694584D01*
X-8500000Y+1700000D01*
D70*
X-4370000Y+1630000D02*
X-3520000Y+1630000D01*
D10*
X-4300000Y-300000D02*
X-4837307Y-300000D01*
X-5596884Y-300000D01*
X-5820694Y-76190D01*
X-5820694Y+336766D01*
X-5819460Y+338000D01*
X-4837307Y-300000D02*
X-5325254Y-787947D01*
X-5325254Y-1611353D01*
X-6176573Y-2462672D01*
X-6387328Y-2462672D01*
X-6400000Y-2450000D01*
X-5819460Y+338000D02*
X-5827672Y+346212D01*
X-5827672Y+628591D01*
X-6050969Y+851888D01*
X-6050969Y+1074969D01*
X-6076000Y+1100000D01*
X-4300000Y-46000D02*
X-4040000Y+214000D01*
X-4040000Y+410000D01*
X-4518532Y+888532D01*
X-4792909Y+888532D01*
X-5355790Y+888532D01*
X-5356532Y+888532D01*
X-5568000Y+1100000D01*
X-8500000Y+300000D02*
X-8515679Y+284321D01*
X-8998592Y+284321D01*
X-9142838Y+428567D01*
X-9160000Y+445729D01*
X-9160000Y+540000D01*
X-10000000Y+1000000D02*
X-9767234Y+767234D01*
X-9142839Y+767234D01*
X-9120888Y+767234D01*
X-8906000Y+552346D01*
X-8906000Y+540000D01*
X-9154000Y-2262000D02*
X-9154000Y-2431999D01*
X-9046790Y-2539209D01*
X-8539209Y-2539209D01*
X-8500000Y-2500000D01*
X-8900000Y-2262000D02*
X-8900000Y-2168591D01*
X-9002888Y-2065703D01*
X-9604297Y-2065703D01*
X-9970000Y-1700000D01*
X-10000000Y-1700000D01*
X-8900000Y-1500000D02*
X-8800000Y-1600000D01*
X-8300000Y-1600000D01*
X-9154000Y-862000D02*
X-9154000Y-989407D01*
X-9043407Y-1100000D01*
X-8500000Y-1100000D01*
X-8900000Y-862000D02*
X-8900000Y-706140D01*
X-8962411Y-643729D01*
X-9725458Y-643729D01*
X-9756271Y-643729D01*
X-10000000Y-400000D01*
X-8900000Y-100000D02*
X-8825149Y-100000D01*
X-8656149Y-269000D01*
X-7988223Y-936926D01*
X-7988223Y-1588223D01*
X-8000000Y-1600000D01*
X-8906000Y+1302000D02*
X-8279901Y+675901D01*
X-8279901Y-430397D01*
X-7700000Y-1010298D01*
X-7700000Y-1600000D01*
X-8846000Y+2812000D02*
X-8153000Y+2119000D01*
X-8153000Y-311259D01*
X-8118741Y-311259D01*
X-7390000Y-1040000D01*
X-7390000Y-1590000D01*
X-7400000Y-1600000D01*
X-4446000Y-1338000D02*
X-3629092Y-1338000D01*
X-3500000Y-1208908D01*
X-3500000Y-1200000D01*
D71*
X-4300000Y-554000D02*
X-3460848Y-554000D01*
X-3215985Y-798863D01*
X-3215985Y-1419431D01*
X-3215985Y-1485985D01*
X-3550000Y-1820000D01*
X-3680000Y-1820000D01*
X-3700000Y-1800000D01*
D10*
X-5568000Y+1100000D02*
X-6178000Y+1710000D01*
X-7900000Y+1710000D01*
D70*
X+1220000Y+1620000D02*
X+1220000Y+550000D01*
X+1150000Y+480000D01*
X-1330000Y+1620000D02*
X-480000Y+1620000D01*
X+370000Y+1620000D02*
X+1220000Y+1620000D01*
D71*
X-3520000Y+1630000D02*
X-3520000Y+630000D01*
X-3650000Y+500000D01*
X-2670000Y+1560000D02*
X-3052964Y+1177036D01*
X-3052964Y+1069488D01*
X-3052964Y+625394D01*
X-3052964Y+597036D01*
X-3650000Y+0D01*
D70*
X-2670000Y+1630000D02*
X-2670000Y+1560000D01*
X-2670000Y+350000D01*
X-810000Y-1510000D01*
X+1280000Y-1510000D01*
X+1450000Y-1340000D01*
X+1450000Y-1300000D01*
D10*
X-4700000Y-2100000D02*
X-4700000Y-2380000D01*
X-4680000Y-2400000D01*
D11*
X-7900000Y+1710000D03*
D12*
X+2740000Y+2270000D03*
X+2240000Y+2270000D03*
D13*
X-1330000Y+1620000D03*
X-480000Y+1620000D03*
X+370000Y+1620000D03*
X+1220000Y+1620000D03*
D14*
X+1450000Y-1300000D03*
D12*
X+2700000Y+100000D03*
X+2700000Y-900000D03*
D14*
X+370000Y+480000D03*
X+1150000Y+480000D03*
D12*
X-3650000Y+0D03*
X-3650000Y+500000D03*
X-700000Y-500000D03*
X-700000Y+1000000D03*
D15*
X-4300000Y-554000D03*
X-4300000Y-300000D03*
X-4300000Y-46000D03*
D13*
X-3500000Y-1200000D03*
X-3500000Y-2400000D03*
X-3700000Y-1800000D03*
X-2280000Y-1200000D03*
X-2280000Y-2400000D03*
D12*
X-7597460Y+338000D03*
X-7343460Y+338000D03*
X-7089460Y+338000D03*
X-6835460Y+338000D03*
X-6581460Y+338000D03*
X-6327460Y+338000D03*
X-6073460Y+338000D03*
X-5819460Y+338000D03*
X-5565460Y+338000D03*
X-5311460Y+338000D03*
X-5057460Y+338000D03*
X-4803460Y+338000D03*
X-4549460Y+338000D03*
X-4295460Y+338000D03*
X-4298000Y+1100000D03*
X-4552000Y+1100000D03*
X-4806000Y+1100000D03*
X-5060000Y+1100000D03*
X-5314000Y+1100000D03*
X-5568000Y+1100000D03*
X-5822000Y+1100000D03*
X-6076000Y+1100000D03*
X-6330000Y+1100000D03*
X-6584000Y+1100000D03*
X-6838000Y+1100000D03*
X-7092000Y+1100000D03*
X-7346000Y+1100000D03*
X-7600000Y+1100000D03*
X-10000000Y+1900000D03*
X-10000000Y+2400000D03*
X-10000000Y+500000D03*
X-10000000Y+1000000D03*
X-10000000Y-900000D03*
X-10000000Y-400000D03*
X-10000000Y-2200000D03*
X-10000000Y-1700000D03*
X-8500000Y+1700000D03*
X-9500000Y+1700000D03*
X-8500000Y+300000D03*
X-9500000Y+300000D03*
X-8500000Y-1100000D03*
X-9500000Y-1100000D03*
X-8500000Y-2500000D03*
X-9500000Y-2500000D03*
D16*
X-9160000Y+540000D03*
D17*
X-8906000Y+540000D03*
X-8906000Y+1302000D03*
X-9160000Y+1302000D03*
D16*
X-9154000Y-862000D03*
D17*
X-8900000Y-862000D03*
X-8900000Y-100000D03*
X-9154000Y-100000D03*
D16*
X-9154000Y-2262000D03*
D17*
X-8900000Y-2262000D03*
X-8900000Y-1500000D03*
X-9154000Y-1500000D03*
D12*
X-8300000Y-1600000D03*
X-8300000Y-2600000D03*
X-8000000Y-1600000D03*
X-8000000Y-2600000D03*
X-7700000Y-1600000D03*
X-7700000Y-2600000D03*
X-7400000Y-1600000D03*
X-7400000Y-2600000D03*
D16*
X-4700000Y-2100000D03*
D17*
X-4446000Y-2100000D03*
X-4446000Y-1338000D03*
X-4700000Y-1338000D03*
D18*
X-6900000Y-2000000D03*
X-6400000Y-2000000D03*
D17*
X-6900000Y-2200000D03*
X-6900000Y-2450000D03*
X-6400000Y-2200000D03*
X-6400000Y-2450000D03*
D13*
X-5220000Y+1630000D03*
X-4370000Y+1630000D03*
X-3520000Y+1630000D03*
X-2670000Y+1630000D03*
D16*
X-9100000Y+2050000D03*
D17*
X-8846000Y+2050000D03*
X-8846000Y+2812000D03*
X-9100000Y+2812000D03*
D12*
X-5680000Y-2400000D03*
X-4680000Y-2400000D03*
D19*
X+3390000Y+2940000D02*
X+3450453Y+2933904D01*
X+3506763Y+2916421D01*
X+3557722Y+2888758D01*
X+3602122Y+2852122D01*
X+3638758Y+2807722D01*
X+3666421Y+2756763D01*
X+3683904Y+2700453D01*
X+3690000Y+2640000D01*
X+3390000Y-2760000D02*
X+3450453Y-2753904D01*
X+3506763Y-2736421D01*
X+3557722Y-2708758D01*
X+3602122Y-2672122D01*
X+3638758Y-2627722D01*
X+3666421Y-2576763D01*
X+3683904Y-2520453D01*
X+3690000Y-2460000D01*
X-10810000Y-2460000D02*
X-10803904Y-2520453D01*
X-10786421Y-2576763D01*
X-10758758Y-2627722D01*
X-10722122Y-2672122D01*
X-10677722Y-2708758D01*
X-10626763Y-2736421D01*
X-10570453Y-2753904D01*
X-10510000Y-2760000D01*
X-10810000Y+2640000D02*
X-10803904Y+2700453D01*
X-10786421Y+2756763D01*
X-10758758Y+2807722D01*
X-10722122Y+2852122D01*
X-10677722Y+2888758D01*
X-10626763Y+2916421D01*
X-10570453Y+2933904D01*
X-10510000Y+2940000D01*
X-10810000Y-2460000D02*
X-10810000Y+2640000D01*
X-10510000Y+2940000D02*
X+3390000Y+2940000D01*
X+3690000Y+2640000D02*
X+3690000Y-2460000D01*
X+3390000Y-2760000D02*
X-10510000Y-2760000D01*
M02*
