G04 PROTEUS GERBER X2 FILE*
%TF.GenerationSoftware,Labcenter,Proteus,8.17-SP2-Build37159*%
%TF.CreationDate,2025-10-20T01:17:28+00:00*%
%TF.FileFunction,Copper,L1,Top*%
%TF.FilePolarity,Positive*%
%TF.Part,Single*%
%TF.SameCoordinates,{dfd261b3-5dba-4516-bcbd-5d7d19192189}*%
%FSLAX45Y45*%
%MOMM*%
G01*
%TA.AperFunction,Conductor*%
%ADD10C,1.016000*%
%TA.AperFunction,ViaPad*%
%ADD11C,1.524000*%
%TA.AperFunction,ComponentPad*%
%ADD12C,1.524000*%
%TA.AperFunction,ComponentPad*%
%ADD13C,2.540000*%
%TA.AperFunction,ComponentPad*%
%ADD14C,3.810000*%
%TA.AperFunction,ComponentPad*%
%ADD15R,2.032000X2.032000*%
%TA.AperFunction,ComponentPad*%
%ADD16R,1.270000X1.270000*%
%ADD17C,1.270000*%
%TA.AperFunction,ComponentPad*%
%ADD18C,1.016000*%
%TA.AperFunction,Profile*%
%ADD19C,0.101600*%
%TD.AperFunction*%
D10*
X-700000Y+1000000D02*
X-700000Y+962026D01*
X-1947522Y-285496D01*
X-4285496Y-285496D01*
X-4300000Y-300000D01*
X-700000Y-500000D02*
X-700000Y-594009D01*
X-1913198Y-1807207D01*
X-3692793Y-1807207D01*
X-3700000Y-1800000D01*
X-6400000Y-2000000D02*
X-6400000Y-1360000D01*
X-5340000Y-300000D01*
X-5340000Y+309460D01*
X-5311460Y+338000D01*
X-6900000Y-2000000D02*
X-6900000Y-1525331D01*
X-5569485Y-194816D01*
X-5569485Y+333975D01*
X-5565460Y+338000D01*
X-7400000Y-1600000D02*
X-7304410Y-1600000D01*
X-7167452Y-1736958D01*
X-7167452Y-2561388D01*
X-7062782Y-2666058D01*
X-6226442Y-2666058D01*
X-6197507Y-2637123D01*
X-6197507Y-1436903D01*
X-5094980Y-334376D01*
X-5057460Y-296856D01*
X-5057460Y+338000D01*
X-7700000Y-1600000D02*
X-6310000Y-210000D01*
X-6310000Y+320540D01*
X-6327460Y+338000D01*
X-8000000Y-1600000D02*
X-6567342Y-167342D01*
X-6567342Y+323882D01*
X-6581460Y+338000D01*
X-8300000Y-1600000D02*
X-6840000Y-140000D01*
X-6840000Y+333460D01*
X-6835460Y+338000D01*
X-5568000Y+1100000D02*
X-6074980Y+593020D01*
X-6074980Y+339520D01*
X-6073460Y+338000D01*
X-8439492Y+776531D02*
X-8439492Y+456243D01*
X-8332886Y+349637D01*
X-8332886Y-678886D01*
X-9154000Y-1500000D01*
X-8439492Y+1506897D02*
X-8439492Y+776531D01*
X-9156168Y+59855D01*
X-9156168Y-97832D01*
X-9154000Y-100000D01*
X-3960000Y-2225392D02*
X-4083861Y-2101531D01*
X-4444469Y-2101531D01*
X-4446000Y-2100000D01*
X-4300000Y-300000D02*
X-4240000Y-300000D01*
X-3960000Y-580000D01*
X-3960000Y-2225392D01*
X-3500000Y-2400000D02*
X-3520804Y-2420804D01*
X-3783113Y-2420804D01*
X-3960000Y-2243917D01*
X-3960000Y-2225392D01*
X-4300000Y-46000D02*
X-4339043Y-85043D01*
X-4572742Y-85043D01*
X-4590050Y-85043D01*
X-4700391Y-195384D01*
X-4700391Y-1337609D01*
X-4700000Y-1338000D01*
X-8840000Y+1506897D02*
X-8930000Y+1506897D01*
X-8940944Y+1506897D01*
X-9145841Y+1302000D01*
X-9160000Y+1302000D01*
X-8439492Y+1506897D02*
X-8840000Y+1506897D01*
X-8930000Y+1506897D01*
X-8940944Y+1506897D01*
X-8964419Y+1506897D01*
X-9160000Y+1311316D01*
X-9160000Y+1302000D01*
X-7900000Y+1710000D02*
X-7998000Y+1710000D01*
X-8657610Y+2369610D01*
X-9100000Y+2812000D01*
X-8657610Y+2369610D02*
X-8657610Y+1992647D01*
X-8827378Y+1822879D01*
X-8827378Y+1519519D01*
X-8840000Y+1506897D01*
X-6900000Y-2200000D02*
X-6900000Y-2000000D01*
X-6400000Y-2200000D02*
X-6400000Y-2000000D01*
X-5680000Y-2400000D02*
X-5092607Y-1812607D01*
X-5092607Y-523558D01*
X-4910000Y-340951D01*
X-4910000Y-40000D01*
X-4724100Y+145900D01*
X-4482220Y+145900D01*
X-4464991Y+145900D01*
X-4295460Y+315431D01*
X-4295460Y+338000D01*
D11*
X-7900000Y+1710000D03*
D12*
X+2740000Y+2270000D03*
X+2240000Y+2270000D03*
D13*
X-1330000Y+1620000D03*
X-480000Y+1620000D03*
X+370000Y+1620000D03*
X+1220000Y+1620000D03*
D14*
X+1450000Y-1300000D03*
D12*
X+2700000Y+100000D03*
X+2700000Y-900000D03*
D14*
X+370000Y+480000D03*
X+1150000Y+480000D03*
D12*
X-3650000Y+0D03*
X-3650000Y+500000D03*
X-700000Y-500000D03*
X-700000Y+1000000D03*
D15*
X-4300000Y-554000D03*
X-4300000Y-300000D03*
X-4300000Y-46000D03*
D13*
X-3500000Y-1200000D03*
X-3500000Y-2400000D03*
X-3700000Y-1800000D03*
X-2280000Y-1200000D03*
X-2280000Y-2400000D03*
D12*
X-7597460Y+338000D03*
X-7343460Y+338000D03*
X-7089460Y+338000D03*
X-6835460Y+338000D03*
X-6581460Y+338000D03*
X-6327460Y+338000D03*
X-6073460Y+338000D03*
X-5819460Y+338000D03*
X-5565460Y+338000D03*
X-5311460Y+338000D03*
X-5057460Y+338000D03*
X-4803460Y+338000D03*
X-4549460Y+338000D03*
X-4295460Y+338000D03*
X-4298000Y+1100000D03*
X-4552000Y+1100000D03*
X-4806000Y+1100000D03*
X-5060000Y+1100000D03*
X-5314000Y+1100000D03*
X-5568000Y+1100000D03*
X-5822000Y+1100000D03*
X-6076000Y+1100000D03*
X-6330000Y+1100000D03*
X-6584000Y+1100000D03*
X-6838000Y+1100000D03*
X-7092000Y+1100000D03*
X-7346000Y+1100000D03*
X-7600000Y+1100000D03*
X-10000000Y+1900000D03*
X-10000000Y+2400000D03*
X-10000000Y+500000D03*
X-10000000Y+1000000D03*
X-10000000Y-900000D03*
X-10000000Y-400000D03*
X-10000000Y-2200000D03*
X-10000000Y-1700000D03*
X-8500000Y+1700000D03*
X-9500000Y+1700000D03*
X-8500000Y+300000D03*
X-9500000Y+300000D03*
X-8500000Y-1100000D03*
X-9500000Y-1100000D03*
X-8500000Y-2500000D03*
X-9500000Y-2500000D03*
D16*
X-9160000Y+540000D03*
D17*
X-8906000Y+540000D03*
X-8906000Y+1302000D03*
X-9160000Y+1302000D03*
D16*
X-9154000Y-862000D03*
D17*
X-8900000Y-862000D03*
X-8900000Y-100000D03*
X-9154000Y-100000D03*
D16*
X-9154000Y-2262000D03*
D17*
X-8900000Y-2262000D03*
X-8900000Y-1500000D03*
X-9154000Y-1500000D03*
D12*
X-8300000Y-1600000D03*
X-8300000Y-2600000D03*
X-8000000Y-1600000D03*
X-8000000Y-2600000D03*
X-7700000Y-1600000D03*
X-7700000Y-2600000D03*
X-7400000Y-1600000D03*
X-7400000Y-2600000D03*
D16*
X-4700000Y-2100000D03*
D17*
X-4446000Y-2100000D03*
X-4446000Y-1338000D03*
X-4700000Y-1338000D03*
D18*
X-6900000Y-2000000D03*
X-6400000Y-2000000D03*
D17*
X-6900000Y-2200000D03*
X-6900000Y-2450000D03*
X-6400000Y-2200000D03*
X-6400000Y-2450000D03*
D13*
X-5220000Y+1630000D03*
X-4370000Y+1630000D03*
X-3520000Y+1630000D03*
X-2670000Y+1630000D03*
D16*
X-9100000Y+2050000D03*
D17*
X-8846000Y+2050000D03*
X-8846000Y+2812000D03*
X-9100000Y+2812000D03*
D12*
X-5680000Y-2400000D03*
X-4680000Y-2400000D03*
D19*
X+3390000Y+2940000D02*
X+3450453Y+2933904D01*
X+3506763Y+2916421D01*
X+3557722Y+2888758D01*
X+3602122Y+2852122D01*
X+3638758Y+2807722D01*
X+3666421Y+2756763D01*
X+3683904Y+2700453D01*
X+3690000Y+2640000D01*
X+3390000Y-2760000D02*
X+3450453Y-2753904D01*
X+3506763Y-2736421D01*
X+3557722Y-2708758D01*
X+3602122Y-2672122D01*
X+3638758Y-2627722D01*
X+3666421Y-2576763D01*
X+3683904Y-2520453D01*
X+3690000Y-2460000D01*
X-10810000Y-2460000D02*
X-10803904Y-2520453D01*
X-10786421Y-2576763D01*
X-10758758Y-2627722D01*
X-10722122Y-2672122D01*
X-10677722Y-2708758D01*
X-10626763Y-2736421D01*
X-10570453Y-2753904D01*
X-10510000Y-2760000D01*
X-10810000Y+2640000D02*
X-10803904Y+2700453D01*
X-10786421Y+2756763D01*
X-10758758Y+2807722D01*
X-10722122Y+2852122D01*
X-10677722Y+2888758D01*
X-10626763Y+2916421D01*
X-10570453Y+2933904D01*
X-10510000Y+2940000D01*
X-10810000Y-2460000D02*
X-10810000Y+2640000D01*
X-10510000Y+2940000D02*
X+3390000Y+2940000D01*
X+3690000Y+2640000D02*
X+3690000Y-2460000D01*
X+3390000Y-2760000D02*
X-10510000Y-2760000D01*
M02*
