G04 PROTEUS RS274X GERBER FILE*
%FSLAX45Y45*%
%MOMM*%
G01*
%ADD18C,0.101600*%
%ADD39C,0.127000*%
%ADD40C,0.063500*%
D18*
X-7900000Y+1773500D02*
X-7900000Y+1646500D01*
X-7963500Y+1710000D02*
X-7836500Y+1710000D01*
X+2740000Y+2333500D02*
X+2740000Y+2206500D01*
X+2676500Y+2270000D02*
X+2803500Y+2270000D01*
X+2695099Y+2314901D02*
X+2784901Y+2225099D01*
X+2695099Y+2225099D02*
X+2784901Y+2314901D01*
X+2240000Y+2333500D02*
X+2240000Y+2206500D01*
X+2176500Y+2270000D02*
X+2303500Y+2270000D01*
X+2195099Y+2314901D02*
X+2284901Y+2225099D01*
X+2195099Y+2225099D02*
X+2284901Y+2314901D01*
X-1266500Y+1620000D02*
X-1266717Y+1625247D01*
X-1268482Y+1635742D01*
X-1272174Y+1646237D01*
X-1278202Y+1656732D01*
X-1287424Y+1667112D01*
X-1297919Y+1674800D01*
X-1308414Y+1679718D01*
X-1318909Y+1682524D01*
X-1329404Y+1683497D01*
X-1330000Y+1683500D01*
X-1393500Y+1620000D02*
X-1393283Y+1625247D01*
X-1391518Y+1635742D01*
X-1387826Y+1646237D01*
X-1381798Y+1656732D01*
X-1372576Y+1667112D01*
X-1362081Y+1674800D01*
X-1351586Y+1679718D01*
X-1341091Y+1682524D01*
X-1330596Y+1683497D01*
X-1330000Y+1683500D01*
X-1393500Y+1620000D02*
X-1393283Y+1614753D01*
X-1391518Y+1604258D01*
X-1387826Y+1593763D01*
X-1381798Y+1583268D01*
X-1372576Y+1572888D01*
X-1362081Y+1565200D01*
X-1351586Y+1560282D01*
X-1341091Y+1557476D01*
X-1330596Y+1556503D01*
X-1330000Y+1556500D01*
X-1266500Y+1620000D02*
X-1266717Y+1614753D01*
X-1268482Y+1604258D01*
X-1272174Y+1593763D01*
X-1278202Y+1583268D01*
X-1287424Y+1572888D01*
X-1297919Y+1565200D01*
X-1308414Y+1560282D01*
X-1318909Y+1557476D01*
X-1329404Y+1556503D01*
X-1330000Y+1556500D01*
X-1330000Y+1683500D02*
X-1330000Y+1556500D01*
X-1393500Y+1620000D02*
X-1266500Y+1620000D01*
X-416500Y+1620000D02*
X-416717Y+1625247D01*
X-418482Y+1635742D01*
X-422174Y+1646237D01*
X-428202Y+1656732D01*
X-437424Y+1667112D01*
X-447919Y+1674800D01*
X-458414Y+1679718D01*
X-468909Y+1682524D01*
X-479404Y+1683497D01*
X-480000Y+1683500D01*
X-543500Y+1620000D02*
X-543283Y+1625247D01*
X-541518Y+1635742D01*
X-537826Y+1646237D01*
X-531798Y+1656732D01*
X-522576Y+1667112D01*
X-512081Y+1674800D01*
X-501586Y+1679718D01*
X-491091Y+1682524D01*
X-480596Y+1683497D01*
X-480000Y+1683500D01*
X-543500Y+1620000D02*
X-543283Y+1614753D01*
X-541518Y+1604258D01*
X-537826Y+1593763D01*
X-531798Y+1583268D01*
X-522576Y+1572888D01*
X-512081Y+1565200D01*
X-501586Y+1560282D01*
X-491091Y+1557476D01*
X-480596Y+1556503D01*
X-480000Y+1556500D01*
X-416500Y+1620000D02*
X-416717Y+1614753D01*
X-418482Y+1604258D01*
X-422174Y+1593763D01*
X-428202Y+1583268D01*
X-437424Y+1572888D01*
X-447919Y+1565200D01*
X-458414Y+1560282D01*
X-468909Y+1557476D01*
X-479404Y+1556503D01*
X-480000Y+1556500D01*
X-480000Y+1683500D02*
X-480000Y+1556500D01*
X-543500Y+1620000D02*
X-416500Y+1620000D01*
X+433500Y+1620000D02*
X+433283Y+1625247D01*
X+431518Y+1635742D01*
X+427826Y+1646237D01*
X+421798Y+1656732D01*
X+412576Y+1667112D01*
X+402081Y+1674800D01*
X+391586Y+1679718D01*
X+381091Y+1682524D01*
X+370596Y+1683497D01*
X+370000Y+1683500D01*
X+306500Y+1620000D02*
X+306717Y+1625247D01*
X+308482Y+1635742D01*
X+312174Y+1646237D01*
X+318202Y+1656732D01*
X+327424Y+1667112D01*
X+337919Y+1674800D01*
X+348414Y+1679718D01*
X+358909Y+1682524D01*
X+369404Y+1683497D01*
X+370000Y+1683500D01*
X+306500Y+1620000D02*
X+306717Y+1614753D01*
X+308482Y+1604258D01*
X+312174Y+1593763D01*
X+318202Y+1583268D01*
X+327424Y+1572888D01*
X+337919Y+1565200D01*
X+348414Y+1560282D01*
X+358909Y+1557476D01*
X+369404Y+1556503D01*
X+370000Y+1556500D01*
X+433500Y+1620000D02*
X+433283Y+1614753D01*
X+431518Y+1604258D01*
X+427826Y+1593763D01*
X+421798Y+1583268D01*
X+412576Y+1572888D01*
X+402081Y+1565200D01*
X+391586Y+1560282D01*
X+381091Y+1557476D01*
X+370596Y+1556503D01*
X+370000Y+1556500D01*
X+370000Y+1683500D02*
X+370000Y+1556500D01*
X+306500Y+1620000D02*
X+433500Y+1620000D01*
X+1283500Y+1620000D02*
X+1283283Y+1625247D01*
X+1281518Y+1635742D01*
X+1277826Y+1646237D01*
X+1271798Y+1656732D01*
X+1262576Y+1667112D01*
X+1252081Y+1674800D01*
X+1241586Y+1679718D01*
X+1231091Y+1682524D01*
X+1220596Y+1683497D01*
X+1220000Y+1683500D01*
X+1156500Y+1620000D02*
X+1156717Y+1625247D01*
X+1158482Y+1635742D01*
X+1162174Y+1646237D01*
X+1168202Y+1656732D01*
X+1177424Y+1667112D01*
X+1187919Y+1674800D01*
X+1198414Y+1679718D01*
X+1208909Y+1682524D01*
X+1219404Y+1683497D01*
X+1220000Y+1683500D01*
X+1156500Y+1620000D02*
X+1156717Y+1614753D01*
X+1158482Y+1604258D01*
X+1162174Y+1593763D01*
X+1168202Y+1583268D01*
X+1177424Y+1572888D01*
X+1187919Y+1565200D01*
X+1198414Y+1560282D01*
X+1208909Y+1557476D01*
X+1219404Y+1556503D01*
X+1220000Y+1556500D01*
X+1283500Y+1620000D02*
X+1283283Y+1614753D01*
X+1281518Y+1604258D01*
X+1277826Y+1593763D01*
X+1271798Y+1583268D01*
X+1262576Y+1572888D01*
X+1252081Y+1565200D01*
X+1241586Y+1560282D01*
X+1231091Y+1557476D01*
X+1220596Y+1556503D01*
X+1220000Y+1556500D01*
X+1220000Y+1683500D02*
X+1220000Y+1556500D01*
X+1156500Y+1620000D02*
X+1283500Y+1620000D01*
X+1513500Y-1300000D02*
X+1513283Y-1294753D01*
X+1511518Y-1284258D01*
X+1507826Y-1273763D01*
X+1501798Y-1263268D01*
X+1492576Y-1252888D01*
X+1482081Y-1245200D01*
X+1471586Y-1240282D01*
X+1461091Y-1237476D01*
X+1450596Y-1236503D01*
X+1450000Y-1236500D01*
X+1386500Y-1300000D02*
X+1386717Y-1294753D01*
X+1388482Y-1284258D01*
X+1392174Y-1273763D01*
X+1398202Y-1263268D01*
X+1407424Y-1252888D01*
X+1417919Y-1245200D01*
X+1428414Y-1240282D01*
X+1438909Y-1237476D01*
X+1449404Y-1236503D01*
X+1450000Y-1236500D01*
X+1386500Y-1300000D02*
X+1386717Y-1305247D01*
X+1388482Y-1315742D01*
X+1392174Y-1326237D01*
X+1398202Y-1336732D01*
X+1407424Y-1347112D01*
X+1417919Y-1354800D01*
X+1428414Y-1359718D01*
X+1438909Y-1362524D01*
X+1449404Y-1363497D01*
X+1450000Y-1363500D01*
X+1513500Y-1300000D02*
X+1513283Y-1305247D01*
X+1511518Y-1315742D01*
X+1507826Y-1326237D01*
X+1501798Y-1336732D01*
X+1492576Y-1347112D01*
X+1482081Y-1354800D01*
X+1471586Y-1359718D01*
X+1461091Y-1362524D01*
X+1450596Y-1363497D01*
X+1450000Y-1363500D01*
X+1450000Y-1236500D02*
X+1450000Y-1363500D01*
X+1386500Y-1300000D02*
X+1513500Y-1300000D01*
X+1513283Y-1294753D01*
X+1511518Y-1284258D01*
X+1507826Y-1273763D01*
X+1501798Y-1263268D01*
X+1492576Y-1252888D01*
X+1482081Y-1245200D01*
X+1471586Y-1240282D01*
X+1461091Y-1237476D01*
X+1450596Y-1236503D01*
X+1450000Y-1236500D01*
X+1386500Y-1300000D02*
X+1386717Y-1294753D01*
X+1388482Y-1284258D01*
X+1392174Y-1273763D01*
X+1398202Y-1263268D01*
X+1407424Y-1252888D01*
X+1417919Y-1245200D01*
X+1428414Y-1240282D01*
X+1438909Y-1237476D01*
X+1449404Y-1236503D01*
X+1450000Y-1236500D01*
X+1386500Y-1300000D02*
X+1386717Y-1305247D01*
X+1388482Y-1315742D01*
X+1392174Y-1326237D01*
X+1398202Y-1336732D01*
X+1407424Y-1347112D01*
X+1417919Y-1354800D01*
X+1428414Y-1359718D01*
X+1438909Y-1362524D01*
X+1449404Y-1363497D01*
X+1450000Y-1363500D01*
X+1513500Y-1300000D02*
X+1513283Y-1305247D01*
X+1511518Y-1315742D01*
X+1507826Y-1326237D01*
X+1501798Y-1336732D01*
X+1492576Y-1347112D01*
X+1482081Y-1354800D01*
X+1471586Y-1359718D01*
X+1461091Y-1362524D01*
X+1450596Y-1363497D01*
X+1450000Y-1363500D01*
X+1405099Y-1255099D02*
X+1494901Y-1344901D01*
X+1405099Y-1344901D02*
X+1494901Y-1255099D01*
X+2763500Y+100000D02*
X+2763283Y+105247D01*
X+2761518Y+115742D01*
X+2757826Y+126237D01*
X+2751798Y+136732D01*
X+2742576Y+147112D01*
X+2732081Y+154800D01*
X+2721586Y+159718D01*
X+2711091Y+162524D01*
X+2700596Y+163497D01*
X+2700000Y+163500D01*
X+2636500Y+100000D02*
X+2636717Y+105247D01*
X+2638482Y+115742D01*
X+2642174Y+126237D01*
X+2648202Y+136732D01*
X+2657424Y+147112D01*
X+2667919Y+154800D01*
X+2678414Y+159718D01*
X+2688909Y+162524D01*
X+2699404Y+163497D01*
X+2700000Y+163500D01*
X+2636500Y+100000D02*
X+2636717Y+94753D01*
X+2638482Y+84258D01*
X+2642174Y+73763D01*
X+2648202Y+63268D01*
X+2657424Y+52888D01*
X+2667919Y+45200D01*
X+2678414Y+40282D01*
X+2688909Y+37476D01*
X+2699404Y+36503D01*
X+2700000Y+36500D01*
X+2763500Y+100000D02*
X+2763283Y+94753D01*
X+2761518Y+84258D01*
X+2757826Y+73763D01*
X+2751798Y+63268D01*
X+2742576Y+52888D01*
X+2732081Y+45200D01*
X+2721586Y+40282D01*
X+2711091Y+37476D01*
X+2700596Y+36503D01*
X+2700000Y+36500D01*
X+2655099Y+144901D02*
X+2744901Y+55099D01*
X+2655099Y+55099D02*
X+2744901Y+144901D01*
X+2763500Y-900000D02*
X+2763283Y-894753D01*
X+2761518Y-884258D01*
X+2757826Y-873763D01*
X+2751798Y-863268D01*
X+2742576Y-852888D01*
X+2732081Y-845200D01*
X+2721586Y-840282D01*
X+2711091Y-837476D01*
X+2700596Y-836503D01*
X+2700000Y-836500D01*
X+2636500Y-900000D02*
X+2636717Y-894753D01*
X+2638482Y-884258D01*
X+2642174Y-873763D01*
X+2648202Y-863268D01*
X+2657424Y-852888D01*
X+2667919Y-845200D01*
X+2678414Y-840282D01*
X+2688909Y-837476D01*
X+2699404Y-836503D01*
X+2700000Y-836500D01*
X+2636500Y-900000D02*
X+2636717Y-905247D01*
X+2638482Y-915742D01*
X+2642174Y-926237D01*
X+2648202Y-936732D01*
X+2657424Y-947112D01*
X+2667919Y-954800D01*
X+2678414Y-959718D01*
X+2688909Y-962524D01*
X+2699404Y-963497D01*
X+2700000Y-963500D01*
X+2763500Y-900000D02*
X+2763283Y-905247D01*
X+2761518Y-915742D01*
X+2757826Y-926237D01*
X+2751798Y-936732D01*
X+2742576Y-947112D01*
X+2732081Y-954800D01*
X+2721586Y-959718D01*
X+2711091Y-962524D01*
X+2700596Y-963497D01*
X+2700000Y-963500D01*
X+2655099Y-855099D02*
X+2744901Y-944901D01*
X+2655099Y-944901D02*
X+2744901Y-855099D01*
X+433500Y+480000D02*
X+433283Y+485247D01*
X+431518Y+495742D01*
X+427826Y+506237D01*
X+421798Y+516732D01*
X+412576Y+527112D01*
X+402081Y+534800D01*
X+391586Y+539718D01*
X+381091Y+542524D01*
X+370596Y+543497D01*
X+370000Y+543500D01*
X+306500Y+480000D02*
X+306717Y+485247D01*
X+308482Y+495742D01*
X+312174Y+506237D01*
X+318202Y+516732D01*
X+327424Y+527112D01*
X+337919Y+534800D01*
X+348414Y+539718D01*
X+358909Y+542524D01*
X+369404Y+543497D01*
X+370000Y+543500D01*
X+306500Y+480000D02*
X+306717Y+474753D01*
X+308482Y+464258D01*
X+312174Y+453763D01*
X+318202Y+443268D01*
X+327424Y+432888D01*
X+337919Y+425200D01*
X+348414Y+420282D01*
X+358909Y+417476D01*
X+369404Y+416503D01*
X+370000Y+416500D01*
X+433500Y+480000D02*
X+433283Y+474753D01*
X+431518Y+464258D01*
X+427826Y+453763D01*
X+421798Y+443268D01*
X+412576Y+432888D01*
X+402081Y+425200D01*
X+391586Y+420282D01*
X+381091Y+417476D01*
X+370596Y+416503D01*
X+370000Y+416500D01*
X+370000Y+543500D02*
X+370000Y+416500D01*
X+306500Y+480000D02*
X+433500Y+480000D01*
X+433283Y+485247D01*
X+431518Y+495742D01*
X+427826Y+506237D01*
X+421798Y+516732D01*
X+412576Y+527112D01*
X+402081Y+534800D01*
X+391586Y+539718D01*
X+381091Y+542524D01*
X+370596Y+543497D01*
X+370000Y+543500D01*
X+306500Y+480000D02*
X+306717Y+485247D01*
X+308482Y+495742D01*
X+312174Y+506237D01*
X+318202Y+516732D01*
X+327424Y+527112D01*
X+337919Y+534800D01*
X+348414Y+539718D01*
X+358909Y+542524D01*
X+369404Y+543497D01*
X+370000Y+543500D01*
X+306500Y+480000D02*
X+306717Y+474753D01*
X+308482Y+464258D01*
X+312174Y+453763D01*
X+318202Y+443268D01*
X+327424Y+432888D01*
X+337919Y+425200D01*
X+348414Y+420282D01*
X+358909Y+417476D01*
X+369404Y+416503D01*
X+370000Y+416500D01*
X+433500Y+480000D02*
X+433283Y+474753D01*
X+431518Y+464258D01*
X+427826Y+453763D01*
X+421798Y+443268D01*
X+412576Y+432888D01*
X+402081Y+425200D01*
X+391586Y+420282D01*
X+381091Y+417476D01*
X+370596Y+416503D01*
X+370000Y+416500D01*
X+325099Y+524901D02*
X+414901Y+435099D01*
X+325099Y+435099D02*
X+414901Y+524901D01*
X+1213500Y+480000D02*
X+1213283Y+485247D01*
X+1211518Y+495742D01*
X+1207826Y+506237D01*
X+1201798Y+516732D01*
X+1192576Y+527112D01*
X+1182081Y+534800D01*
X+1171586Y+539718D01*
X+1161091Y+542524D01*
X+1150596Y+543497D01*
X+1150000Y+543500D01*
X+1086500Y+480000D02*
X+1086717Y+485247D01*
X+1088482Y+495742D01*
X+1092174Y+506237D01*
X+1098202Y+516732D01*
X+1107424Y+527112D01*
X+1117919Y+534800D01*
X+1128414Y+539718D01*
X+1138909Y+542524D01*
X+1149404Y+543497D01*
X+1150000Y+543500D01*
X+1086500Y+480000D02*
X+1086717Y+474753D01*
X+1088482Y+464258D01*
X+1092174Y+453763D01*
X+1098202Y+443268D01*
X+1107424Y+432888D01*
X+1117919Y+425200D01*
X+1128414Y+420282D01*
X+1138909Y+417476D01*
X+1149404Y+416503D01*
X+1150000Y+416500D01*
X+1213500Y+480000D02*
X+1213283Y+474753D01*
X+1211518Y+464258D01*
X+1207826Y+453763D01*
X+1201798Y+443268D01*
X+1192576Y+432888D01*
X+1182081Y+425200D01*
X+1171586Y+420282D01*
X+1161091Y+417476D01*
X+1150596Y+416503D01*
X+1150000Y+416500D01*
X+1150000Y+543500D02*
X+1150000Y+416500D01*
X+1086500Y+480000D02*
X+1213500Y+480000D01*
X+1213283Y+485247D01*
X+1211518Y+495742D01*
X+1207826Y+506237D01*
X+1201798Y+516732D01*
X+1192576Y+527112D01*
X+1182081Y+534800D01*
X+1171586Y+539718D01*
X+1161091Y+542524D01*
X+1150596Y+543497D01*
X+1150000Y+543500D01*
X+1086500Y+480000D02*
X+1086717Y+485247D01*
X+1088482Y+495742D01*
X+1092174Y+506237D01*
X+1098202Y+516732D01*
X+1107424Y+527112D01*
X+1117919Y+534800D01*
X+1128414Y+539718D01*
X+1138909Y+542524D01*
X+1149404Y+543497D01*
X+1150000Y+543500D01*
X+1086500Y+480000D02*
X+1086717Y+474753D01*
X+1088482Y+464258D01*
X+1092174Y+453763D01*
X+1098202Y+443268D01*
X+1107424Y+432888D01*
X+1117919Y+425200D01*
X+1128414Y+420282D01*
X+1138909Y+417476D01*
X+1149404Y+416503D01*
X+1150000Y+416500D01*
X+1213500Y+480000D02*
X+1213283Y+474753D01*
X+1211518Y+464258D01*
X+1207826Y+453763D01*
X+1201798Y+443268D01*
X+1192576Y+432888D01*
X+1182081Y+425200D01*
X+1171586Y+420282D01*
X+1161091Y+417476D01*
X+1150596Y+416503D01*
X+1150000Y+416500D01*
X+1105099Y+524901D02*
X+1194901Y+435099D01*
X+1105099Y+435099D02*
X+1194901Y+524901D01*
X-3586500Y+0D02*
X-3586717Y+5247D01*
X-3588482Y+15742D01*
X-3592174Y+26237D01*
X-3598202Y+36732D01*
X-3607424Y+47112D01*
X-3617919Y+54800D01*
X-3628414Y+59718D01*
X-3638909Y+62524D01*
X-3649404Y+63497D01*
X-3650000Y+63500D01*
X-3713500Y+0D02*
X-3713283Y+5247D01*
X-3711518Y+15742D01*
X-3707826Y+26237D01*
X-3701798Y+36732D01*
X-3692576Y+47112D01*
X-3682081Y+54800D01*
X-3671586Y+59718D01*
X-3661091Y+62524D01*
X-3650596Y+63497D01*
X-3650000Y+63500D01*
X-3713500Y+0D02*
X-3713283Y-5247D01*
X-3711518Y-15742D01*
X-3707826Y-26237D01*
X-3701798Y-36732D01*
X-3692576Y-47112D01*
X-3682081Y-54800D01*
X-3671586Y-59718D01*
X-3661091Y-62524D01*
X-3650596Y-63497D01*
X-3650000Y-63500D01*
X-3586500Y+0D02*
X-3586717Y-5247D01*
X-3588482Y-15742D01*
X-3592174Y-26237D01*
X-3598202Y-36732D01*
X-3607424Y-47112D01*
X-3617919Y-54800D01*
X-3628414Y-59718D01*
X-3638909Y-62524D01*
X-3649404Y-63497D01*
X-3650000Y-63500D01*
X-3694901Y+44901D02*
X-3605099Y-44901D01*
X-3694901Y-44901D02*
X-3605099Y+44901D01*
X-3586500Y+500000D02*
X-3586717Y+505247D01*
X-3588482Y+515742D01*
X-3592174Y+526237D01*
X-3598202Y+536732D01*
X-3607424Y+547112D01*
X-3617919Y+554800D01*
X-3628414Y+559718D01*
X-3638909Y+562524D01*
X-3649404Y+563497D01*
X-3650000Y+563500D01*
X-3713500Y+500000D02*
X-3713283Y+505247D01*
X-3711518Y+515742D01*
X-3707826Y+526237D01*
X-3701798Y+536732D01*
X-3692576Y+547112D01*
X-3682081Y+554800D01*
X-3671586Y+559718D01*
X-3661091Y+562524D01*
X-3650596Y+563497D01*
X-3650000Y+563500D01*
X-3713500Y+500000D02*
X-3713283Y+494753D01*
X-3711518Y+484258D01*
X-3707826Y+473763D01*
X-3701798Y+463268D01*
X-3692576Y+452888D01*
X-3682081Y+445200D01*
X-3671586Y+440282D01*
X-3661091Y+437476D01*
X-3650596Y+436503D01*
X-3650000Y+436500D01*
X-3586500Y+500000D02*
X-3586717Y+494753D01*
X-3588482Y+484258D01*
X-3592174Y+473763D01*
X-3598202Y+463268D01*
X-3607424Y+452888D01*
X-3617919Y+445200D01*
X-3628414Y+440282D01*
X-3638909Y+437476D01*
X-3649404Y+436503D01*
X-3650000Y+436500D01*
X-3694901Y+544901D02*
X-3605099Y+455099D01*
X-3694901Y+455099D02*
X-3605099Y+544901D01*
X-636500Y-500000D02*
X-636717Y-494753D01*
X-638482Y-484258D01*
X-642174Y-473763D01*
X-648202Y-463268D01*
X-657424Y-452888D01*
X-667919Y-445200D01*
X-678414Y-440282D01*
X-688909Y-437476D01*
X-699404Y-436503D01*
X-700000Y-436500D01*
X-763500Y-500000D02*
X-763283Y-494753D01*
X-761518Y-484258D01*
X-757826Y-473763D01*
X-751798Y-463268D01*
X-742576Y-452888D01*
X-732081Y-445200D01*
X-721586Y-440282D01*
X-711091Y-437476D01*
X-700596Y-436503D01*
X-700000Y-436500D01*
X-763500Y-500000D02*
X-763283Y-505247D01*
X-761518Y-515742D01*
X-757826Y-526237D01*
X-751798Y-536732D01*
X-742576Y-547112D01*
X-732081Y-554800D01*
X-721586Y-559718D01*
X-711091Y-562524D01*
X-700596Y-563497D01*
X-700000Y-563500D01*
X-636500Y-500000D02*
X-636717Y-505247D01*
X-638482Y-515742D01*
X-642174Y-526237D01*
X-648202Y-536732D01*
X-657424Y-547112D01*
X-667919Y-554800D01*
X-678414Y-559718D01*
X-688909Y-562524D01*
X-699404Y-563497D01*
X-700000Y-563500D01*
X-744901Y-455099D02*
X-655099Y-544901D01*
X-744901Y-544901D02*
X-655099Y-455099D01*
X-636500Y+1000000D02*
X-636717Y+1005247D01*
X-638482Y+1015742D01*
X-642174Y+1026237D01*
X-648202Y+1036732D01*
X-657424Y+1047112D01*
X-667919Y+1054800D01*
X-678414Y+1059718D01*
X-688909Y+1062524D01*
X-699404Y+1063497D01*
X-700000Y+1063500D01*
X-763500Y+1000000D02*
X-763283Y+1005247D01*
X-761518Y+1015742D01*
X-757826Y+1026237D01*
X-751798Y+1036732D01*
X-742576Y+1047112D01*
X-732081Y+1054800D01*
X-721586Y+1059718D01*
X-711091Y+1062524D01*
X-700596Y+1063497D01*
X-700000Y+1063500D01*
X-763500Y+1000000D02*
X-763283Y+994753D01*
X-761518Y+984258D01*
X-757826Y+973763D01*
X-751798Y+963268D01*
X-742576Y+952888D01*
X-732081Y+945200D01*
X-721586Y+940282D01*
X-711091Y+937476D01*
X-700596Y+936503D01*
X-700000Y+936500D01*
X-636500Y+1000000D02*
X-636717Y+994753D01*
X-638482Y+984258D01*
X-642174Y+973763D01*
X-648202Y+963268D01*
X-657424Y+952888D01*
X-667919Y+945200D01*
X-678414Y+940282D01*
X-688909Y+937476D01*
X-699404Y+936503D01*
X-700000Y+936500D01*
X-744901Y+1044901D02*
X-655099Y+955099D01*
X-744901Y+955099D02*
X-655099Y+1044901D01*
X-4236500Y-554000D02*
X-4236717Y-548753D01*
X-4238482Y-538258D01*
X-4242174Y-527763D01*
X-4248202Y-517268D01*
X-4257424Y-506888D01*
X-4267919Y-499200D01*
X-4278414Y-494282D01*
X-4288909Y-491476D01*
X-4299404Y-490503D01*
X-4300000Y-490500D01*
X-4363500Y-554000D02*
X-4363283Y-548753D01*
X-4361518Y-538258D01*
X-4357826Y-527763D01*
X-4351798Y-517268D01*
X-4342576Y-506888D01*
X-4332081Y-499200D01*
X-4321586Y-494282D01*
X-4311091Y-491476D01*
X-4300596Y-490503D01*
X-4300000Y-490500D01*
X-4363500Y-554000D02*
X-4363283Y-559247D01*
X-4361518Y-569742D01*
X-4357826Y-580237D01*
X-4351798Y-590732D01*
X-4342576Y-601112D01*
X-4332081Y-608800D01*
X-4321586Y-613718D01*
X-4311091Y-616524D01*
X-4300596Y-617497D01*
X-4300000Y-617500D01*
X-4236500Y-554000D02*
X-4236717Y-559247D01*
X-4238482Y-569742D01*
X-4242174Y-580237D01*
X-4248202Y-590732D01*
X-4257424Y-601112D01*
X-4267919Y-608800D01*
X-4278414Y-613718D01*
X-4288909Y-616524D01*
X-4299404Y-617497D01*
X-4300000Y-617500D01*
X-4344901Y-509099D02*
X-4255099Y-598901D01*
X-4344901Y-598901D02*
X-4255099Y-509099D01*
X-4236500Y-300000D02*
X-4236717Y-294753D01*
X-4238482Y-284258D01*
X-4242174Y-273763D01*
X-4248202Y-263268D01*
X-4257424Y-252888D01*
X-4267919Y-245200D01*
X-4278414Y-240282D01*
X-4288909Y-237476D01*
X-4299404Y-236503D01*
X-4300000Y-236500D01*
X-4363500Y-300000D02*
X-4363283Y-294753D01*
X-4361518Y-284258D01*
X-4357826Y-273763D01*
X-4351798Y-263268D01*
X-4342576Y-252888D01*
X-4332081Y-245200D01*
X-4321586Y-240282D01*
X-4311091Y-237476D01*
X-4300596Y-236503D01*
X-4300000Y-236500D01*
X-4363500Y-300000D02*
X-4363283Y-305247D01*
X-4361518Y-315742D01*
X-4357826Y-326237D01*
X-4351798Y-336732D01*
X-4342576Y-347112D01*
X-4332081Y-354800D01*
X-4321586Y-359718D01*
X-4311091Y-362524D01*
X-4300596Y-363497D01*
X-4300000Y-363500D01*
X-4236500Y-300000D02*
X-4236717Y-305247D01*
X-4238482Y-315742D01*
X-4242174Y-326237D01*
X-4248202Y-336732D01*
X-4257424Y-347112D01*
X-4267919Y-354800D01*
X-4278414Y-359718D01*
X-4288909Y-362524D01*
X-4299404Y-363497D01*
X-4300000Y-363500D01*
X-4344901Y-255099D02*
X-4255099Y-344901D01*
X-4344901Y-344901D02*
X-4255099Y-255099D01*
X-4236500Y-46000D02*
X-4236717Y-40753D01*
X-4238482Y-30258D01*
X-4242174Y-19763D01*
X-4248202Y-9268D01*
X-4257424Y+1112D01*
X-4267919Y+8800D01*
X-4278414Y+13718D01*
X-4288909Y+16524D01*
X-4299404Y+17497D01*
X-4300000Y+17500D01*
X-4363500Y-46000D02*
X-4363283Y-40753D01*
X-4361518Y-30258D01*
X-4357826Y-19763D01*
X-4351798Y-9268D01*
X-4342576Y+1112D01*
X-4332081Y+8800D01*
X-4321586Y+13718D01*
X-4311091Y+16524D01*
X-4300596Y+17497D01*
X-4300000Y+17500D01*
X-4363500Y-46000D02*
X-4363283Y-51247D01*
X-4361518Y-61742D01*
X-4357826Y-72237D01*
X-4351798Y-82732D01*
X-4342576Y-93112D01*
X-4332081Y-100800D01*
X-4321586Y-105718D01*
X-4311091Y-108524D01*
X-4300596Y-109497D01*
X-4300000Y-109500D01*
X-4236500Y-46000D02*
X-4236717Y-51247D01*
X-4238482Y-61742D01*
X-4242174Y-72237D01*
X-4248202Y-82732D01*
X-4257424Y-93112D01*
X-4267919Y-100800D01*
X-4278414Y-105718D01*
X-4288909Y-108524D01*
X-4299404Y-109497D01*
X-4300000Y-109500D01*
X-4344901Y-1099D02*
X-4255099Y-90901D01*
X-4344901Y-90901D02*
X-4255099Y-1099D01*
X-3436500Y-1200000D02*
X-3436717Y-1194753D01*
X-3438482Y-1184258D01*
X-3442174Y-1173763D01*
X-3448202Y-1163268D01*
X-3457424Y-1152888D01*
X-3467919Y-1145200D01*
X-3478414Y-1140282D01*
X-3488909Y-1137476D01*
X-3499404Y-1136503D01*
X-3500000Y-1136500D01*
X-3563500Y-1200000D02*
X-3563283Y-1194753D01*
X-3561518Y-1184258D01*
X-3557826Y-1173763D01*
X-3551798Y-1163268D01*
X-3542576Y-1152888D01*
X-3532081Y-1145200D01*
X-3521586Y-1140282D01*
X-3511091Y-1137476D01*
X-3500596Y-1136503D01*
X-3500000Y-1136500D01*
X-3563500Y-1200000D02*
X-3563283Y-1205247D01*
X-3561518Y-1215742D01*
X-3557826Y-1226237D01*
X-3551798Y-1236732D01*
X-3542576Y-1247112D01*
X-3532081Y-1254800D01*
X-3521586Y-1259718D01*
X-3511091Y-1262524D01*
X-3500596Y-1263497D01*
X-3500000Y-1263500D01*
X-3436500Y-1200000D02*
X-3436717Y-1205247D01*
X-3438482Y-1215742D01*
X-3442174Y-1226237D01*
X-3448202Y-1236732D01*
X-3457424Y-1247112D01*
X-3467919Y-1254800D01*
X-3478414Y-1259718D01*
X-3488909Y-1262524D01*
X-3499404Y-1263497D01*
X-3500000Y-1263500D01*
X-3500000Y-1136500D02*
X-3500000Y-1263500D01*
X-3563500Y-1200000D02*
X-3436500Y-1200000D01*
X-3436717Y-1194753D01*
X-3438482Y-1184258D01*
X-3442174Y-1173763D01*
X-3448202Y-1163268D01*
X-3457424Y-1152888D01*
X-3467919Y-1145200D01*
X-3478414Y-1140282D01*
X-3488909Y-1137476D01*
X-3499404Y-1136503D01*
X-3500000Y-1136500D01*
X-3563500Y-1200000D02*
X-3563283Y-1194753D01*
X-3561518Y-1184258D01*
X-3557826Y-1173763D01*
X-3551798Y-1163268D01*
X-3542576Y-1152888D01*
X-3532081Y-1145200D01*
X-3521586Y-1140282D01*
X-3511091Y-1137476D01*
X-3500596Y-1136503D01*
X-3500000Y-1136500D01*
X-3563500Y-1200000D02*
X-3563283Y-1205247D01*
X-3561518Y-1215742D01*
X-3557826Y-1226237D01*
X-3551798Y-1236732D01*
X-3542576Y-1247112D01*
X-3532081Y-1254800D01*
X-3521586Y-1259718D01*
X-3511091Y-1262524D01*
X-3500596Y-1263497D01*
X-3500000Y-1263500D01*
X-3436500Y-1200000D02*
X-3436717Y-1205247D01*
X-3438482Y-1215742D01*
X-3442174Y-1226237D01*
X-3448202Y-1236732D01*
X-3457424Y-1247112D01*
X-3467919Y-1254800D01*
X-3478414Y-1259718D01*
X-3488909Y-1262524D01*
X-3499404Y-1263497D01*
X-3500000Y-1263500D01*
X-3544901Y-1155099D02*
X-3455099Y-1244901D01*
X-3544901Y-1244901D02*
X-3455099Y-1155099D01*
X-3436500Y-2400000D02*
X-3436717Y-2394753D01*
X-3438482Y-2384258D01*
X-3442174Y-2373763D01*
X-3448202Y-2363268D01*
X-3457424Y-2352888D01*
X-3467919Y-2345200D01*
X-3478414Y-2340282D01*
X-3488909Y-2337476D01*
X-3499404Y-2336503D01*
X-3500000Y-2336500D01*
X-3563500Y-2400000D02*
X-3563283Y-2394753D01*
X-3561518Y-2384258D01*
X-3557826Y-2373763D01*
X-3551798Y-2363268D01*
X-3542576Y-2352888D01*
X-3532081Y-2345200D01*
X-3521586Y-2340282D01*
X-3511091Y-2337476D01*
X-3500596Y-2336503D01*
X-3500000Y-2336500D01*
X-3563500Y-2400000D02*
X-3563283Y-2405247D01*
X-3561518Y-2415742D01*
X-3557826Y-2426237D01*
X-3551798Y-2436732D01*
X-3542576Y-2447112D01*
X-3532081Y-2454800D01*
X-3521586Y-2459718D01*
X-3511091Y-2462524D01*
X-3500596Y-2463497D01*
X-3500000Y-2463500D01*
X-3436500Y-2400000D02*
X-3436717Y-2405247D01*
X-3438482Y-2415742D01*
X-3442174Y-2426237D01*
X-3448202Y-2436732D01*
X-3457424Y-2447112D01*
X-3467919Y-2454800D01*
X-3478414Y-2459718D01*
X-3488909Y-2462524D01*
X-3499404Y-2463497D01*
X-3500000Y-2463500D01*
X-3500000Y-2336500D02*
X-3500000Y-2463500D01*
X-3563500Y-2400000D02*
X-3436500Y-2400000D01*
X-3436717Y-2394753D01*
X-3438482Y-2384258D01*
X-3442174Y-2373763D01*
X-3448202Y-2363268D01*
X-3457424Y-2352888D01*
X-3467919Y-2345200D01*
X-3478414Y-2340282D01*
X-3488909Y-2337476D01*
X-3499404Y-2336503D01*
X-3500000Y-2336500D01*
X-3563500Y-2400000D02*
X-3563283Y-2394753D01*
X-3561518Y-2384258D01*
X-3557826Y-2373763D01*
X-3551798Y-2363268D01*
X-3542576Y-2352888D01*
X-3532081Y-2345200D01*
X-3521586Y-2340282D01*
X-3511091Y-2337476D01*
X-3500596Y-2336503D01*
X-3500000Y-2336500D01*
X-3563500Y-2400000D02*
X-3563283Y-2405247D01*
X-3561518Y-2415742D01*
X-3557826Y-2426237D01*
X-3551798Y-2436732D01*
X-3542576Y-2447112D01*
X-3532081Y-2454800D01*
X-3521586Y-2459718D01*
X-3511091Y-2462524D01*
X-3500596Y-2463497D01*
X-3500000Y-2463500D01*
X-3436500Y-2400000D02*
X-3436717Y-2405247D01*
X-3438482Y-2415742D01*
X-3442174Y-2426237D01*
X-3448202Y-2436732D01*
X-3457424Y-2447112D01*
X-3467919Y-2454800D01*
X-3478414Y-2459718D01*
X-3488909Y-2462524D01*
X-3499404Y-2463497D01*
X-3500000Y-2463500D01*
X-3544901Y-2355099D02*
X-3455099Y-2444901D01*
X-3544901Y-2444901D02*
X-3455099Y-2355099D01*
X-3636500Y-1800000D02*
X-3636717Y-1794753D01*
X-3638482Y-1784258D01*
X-3642174Y-1773763D01*
X-3648202Y-1763268D01*
X-3657424Y-1752888D01*
X-3667919Y-1745200D01*
X-3678414Y-1740282D01*
X-3688909Y-1737476D01*
X-3699404Y-1736503D01*
X-3700000Y-1736500D01*
X-3763500Y-1800000D02*
X-3763283Y-1794753D01*
X-3761518Y-1784258D01*
X-3757826Y-1773763D01*
X-3751798Y-1763268D01*
X-3742576Y-1752888D01*
X-3732081Y-1745200D01*
X-3721586Y-1740282D01*
X-3711091Y-1737476D01*
X-3700596Y-1736503D01*
X-3700000Y-1736500D01*
X-3763500Y-1800000D02*
X-3763283Y-1805247D01*
X-3761518Y-1815742D01*
X-3757826Y-1826237D01*
X-3751798Y-1836732D01*
X-3742576Y-1847112D01*
X-3732081Y-1854800D01*
X-3721586Y-1859718D01*
X-3711091Y-1862524D01*
X-3700596Y-1863497D01*
X-3700000Y-1863500D01*
X-3636500Y-1800000D02*
X-3636717Y-1805247D01*
X-3638482Y-1815742D01*
X-3642174Y-1826237D01*
X-3648202Y-1836732D01*
X-3657424Y-1847112D01*
X-3667919Y-1854800D01*
X-3678414Y-1859718D01*
X-3688909Y-1862524D01*
X-3699404Y-1863497D01*
X-3700000Y-1863500D01*
X-3700000Y-1736500D02*
X-3700000Y-1863500D01*
X-3763500Y-1800000D02*
X-3636500Y-1800000D01*
X-3636717Y-1794753D01*
X-3638482Y-1784258D01*
X-3642174Y-1773763D01*
X-3648202Y-1763268D01*
X-3657424Y-1752888D01*
X-3667919Y-1745200D01*
X-3678414Y-1740282D01*
X-3688909Y-1737476D01*
X-3699404Y-1736503D01*
X-3700000Y-1736500D01*
X-3763500Y-1800000D02*
X-3763283Y-1794753D01*
X-3761518Y-1784258D01*
X-3757826Y-1773763D01*
X-3751798Y-1763268D01*
X-3742576Y-1752888D01*
X-3732081Y-1745200D01*
X-3721586Y-1740282D01*
X-3711091Y-1737476D01*
X-3700596Y-1736503D01*
X-3700000Y-1736500D01*
X-3763500Y-1800000D02*
X-3763283Y-1805247D01*
X-3761518Y-1815742D01*
X-3757826Y-1826237D01*
X-3751798Y-1836732D01*
X-3742576Y-1847112D01*
X-3732081Y-1854800D01*
X-3721586Y-1859718D01*
X-3711091Y-1862524D01*
X-3700596Y-1863497D01*
X-3700000Y-1863500D01*
X-3636500Y-1800000D02*
X-3636717Y-1805247D01*
X-3638482Y-1815742D01*
X-3642174Y-1826237D01*
X-3648202Y-1836732D01*
X-3657424Y-1847112D01*
X-3667919Y-1854800D01*
X-3678414Y-1859718D01*
X-3688909Y-1862524D01*
X-3699404Y-1863497D01*
X-3700000Y-1863500D01*
X-3744901Y-1755099D02*
X-3655099Y-1844901D01*
X-3744901Y-1844901D02*
X-3655099Y-1755099D01*
X-2216500Y-1200000D02*
X-2216717Y-1194753D01*
X-2218482Y-1184258D01*
X-2222174Y-1173763D01*
X-2228202Y-1163268D01*
X-2237424Y-1152888D01*
X-2247919Y-1145200D01*
X-2258414Y-1140282D01*
X-2268909Y-1137476D01*
X-2279404Y-1136503D01*
X-2280000Y-1136500D01*
X-2343500Y-1200000D02*
X-2343283Y-1194753D01*
X-2341518Y-1184258D01*
X-2337826Y-1173763D01*
X-2331798Y-1163268D01*
X-2322576Y-1152888D01*
X-2312081Y-1145200D01*
X-2301586Y-1140282D01*
X-2291091Y-1137476D01*
X-2280596Y-1136503D01*
X-2280000Y-1136500D01*
X-2343500Y-1200000D02*
X-2343283Y-1205247D01*
X-2341518Y-1215742D01*
X-2337826Y-1226237D01*
X-2331798Y-1236732D01*
X-2322576Y-1247112D01*
X-2312081Y-1254800D01*
X-2301586Y-1259718D01*
X-2291091Y-1262524D01*
X-2280596Y-1263497D01*
X-2280000Y-1263500D01*
X-2216500Y-1200000D02*
X-2216717Y-1205247D01*
X-2218482Y-1215742D01*
X-2222174Y-1226237D01*
X-2228202Y-1236732D01*
X-2237424Y-1247112D01*
X-2247919Y-1254800D01*
X-2258414Y-1259718D01*
X-2268909Y-1262524D01*
X-2279404Y-1263497D01*
X-2280000Y-1263500D01*
X-2280000Y-1136500D02*
X-2280000Y-1263500D01*
X-2343500Y-1200000D02*
X-2216500Y-1200000D01*
X-2216717Y-1194753D01*
X-2218482Y-1184258D01*
X-2222174Y-1173763D01*
X-2228202Y-1163268D01*
X-2237424Y-1152888D01*
X-2247919Y-1145200D01*
X-2258414Y-1140282D01*
X-2268909Y-1137476D01*
X-2279404Y-1136503D01*
X-2280000Y-1136500D01*
X-2343500Y-1200000D02*
X-2343283Y-1194753D01*
X-2341518Y-1184258D01*
X-2337826Y-1173763D01*
X-2331798Y-1163268D01*
X-2322576Y-1152888D01*
X-2312081Y-1145200D01*
X-2301586Y-1140282D01*
X-2291091Y-1137476D01*
X-2280596Y-1136503D01*
X-2280000Y-1136500D01*
X-2343500Y-1200000D02*
X-2343283Y-1205247D01*
X-2341518Y-1215742D01*
X-2337826Y-1226237D01*
X-2331798Y-1236732D01*
X-2322576Y-1247112D01*
X-2312081Y-1254800D01*
X-2301586Y-1259718D01*
X-2291091Y-1262524D01*
X-2280596Y-1263497D01*
X-2280000Y-1263500D01*
X-2216500Y-1200000D02*
X-2216717Y-1205247D01*
X-2218482Y-1215742D01*
X-2222174Y-1226237D01*
X-2228202Y-1236732D01*
X-2237424Y-1247112D01*
X-2247919Y-1254800D01*
X-2258414Y-1259718D01*
X-2268909Y-1262524D01*
X-2279404Y-1263497D01*
X-2280000Y-1263500D01*
X-2324901Y-1155099D02*
X-2235099Y-1244901D01*
X-2324901Y-1244901D02*
X-2235099Y-1155099D01*
X-2216500Y-2400000D02*
X-2216717Y-2394753D01*
X-2218482Y-2384258D01*
X-2222174Y-2373763D01*
X-2228202Y-2363268D01*
X-2237424Y-2352888D01*
X-2247919Y-2345200D01*
X-2258414Y-2340282D01*
X-2268909Y-2337476D01*
X-2279404Y-2336503D01*
X-2280000Y-2336500D01*
X-2343500Y-2400000D02*
X-2343283Y-2394753D01*
X-2341518Y-2384258D01*
X-2337826Y-2373763D01*
X-2331798Y-2363268D01*
X-2322576Y-2352888D01*
X-2312081Y-2345200D01*
X-2301586Y-2340282D01*
X-2291091Y-2337476D01*
X-2280596Y-2336503D01*
X-2280000Y-2336500D01*
X-2343500Y-2400000D02*
X-2343283Y-2405247D01*
X-2341518Y-2415742D01*
X-2337826Y-2426237D01*
X-2331798Y-2436732D01*
X-2322576Y-2447112D01*
X-2312081Y-2454800D01*
X-2301586Y-2459718D01*
X-2291091Y-2462524D01*
X-2280596Y-2463497D01*
X-2280000Y-2463500D01*
X-2216500Y-2400000D02*
X-2216717Y-2405247D01*
X-2218482Y-2415742D01*
X-2222174Y-2426237D01*
X-2228202Y-2436732D01*
X-2237424Y-2447112D01*
X-2247919Y-2454800D01*
X-2258414Y-2459718D01*
X-2268909Y-2462524D01*
X-2279404Y-2463497D01*
X-2280000Y-2463500D01*
X-2280000Y-2336500D02*
X-2280000Y-2463500D01*
X-2343500Y-2400000D02*
X-2216500Y-2400000D01*
X-2216717Y-2394753D01*
X-2218482Y-2384258D01*
X-2222174Y-2373763D01*
X-2228202Y-2363268D01*
X-2237424Y-2352888D01*
X-2247919Y-2345200D01*
X-2258414Y-2340282D01*
X-2268909Y-2337476D01*
X-2279404Y-2336503D01*
X-2280000Y-2336500D01*
X-2343500Y-2400000D02*
X-2343283Y-2394753D01*
X-2341518Y-2384258D01*
X-2337826Y-2373763D01*
X-2331798Y-2363268D01*
X-2322576Y-2352888D01*
X-2312081Y-2345200D01*
X-2301586Y-2340282D01*
X-2291091Y-2337476D01*
X-2280596Y-2336503D01*
X-2280000Y-2336500D01*
X-2343500Y-2400000D02*
X-2343283Y-2405247D01*
X-2341518Y-2415742D01*
X-2337826Y-2426237D01*
X-2331798Y-2436732D01*
X-2322576Y-2447112D01*
X-2312081Y-2454800D01*
X-2301586Y-2459718D01*
X-2291091Y-2462524D01*
X-2280596Y-2463497D01*
X-2280000Y-2463500D01*
X-2216500Y-2400000D02*
X-2216717Y-2405247D01*
X-2218482Y-2415742D01*
X-2222174Y-2426237D01*
X-2228202Y-2436732D01*
X-2237424Y-2447112D01*
X-2247919Y-2454800D01*
X-2258414Y-2459718D01*
X-2268909Y-2462524D01*
X-2279404Y-2463497D01*
X-2280000Y-2463500D01*
X-2324901Y-2355099D02*
X-2235099Y-2444901D01*
X-2324901Y-2444901D02*
X-2235099Y-2355099D01*
X-7597460Y+401500D02*
X-7597460Y+274500D01*
X-7660960Y+338000D02*
X-7533960Y+338000D01*
X-7642361Y+382901D02*
X-7552559Y+293099D01*
X-7642361Y+293099D02*
X-7552559Y+382901D01*
X-7343460Y+401500D02*
X-7343460Y+274500D01*
X-7406960Y+338000D02*
X-7279960Y+338000D01*
X-7388361Y+382901D02*
X-7298559Y+293099D01*
X-7388361Y+293099D02*
X-7298559Y+382901D01*
X-7089460Y+401500D02*
X-7089460Y+274500D01*
X-7152960Y+338000D02*
X-7025960Y+338000D01*
X-7134361Y+382901D02*
X-7044559Y+293099D01*
X-7134361Y+293099D02*
X-7044559Y+382901D01*
X-6835460Y+401500D02*
X-6835460Y+274500D01*
X-6898960Y+338000D02*
X-6771960Y+338000D01*
X-6880361Y+382901D02*
X-6790559Y+293099D01*
X-6880361Y+293099D02*
X-6790559Y+382901D01*
X-6581460Y+401500D02*
X-6581460Y+274500D01*
X-6644960Y+338000D02*
X-6517960Y+338000D01*
X-6626361Y+382901D02*
X-6536559Y+293099D01*
X-6626361Y+293099D02*
X-6536559Y+382901D01*
X-6327460Y+401500D02*
X-6327460Y+274500D01*
X-6390960Y+338000D02*
X-6263960Y+338000D01*
X-6372361Y+382901D02*
X-6282559Y+293099D01*
X-6372361Y+293099D02*
X-6282559Y+382901D01*
X-6073460Y+401500D02*
X-6073460Y+274500D01*
X-6136960Y+338000D02*
X-6009960Y+338000D01*
X-6118361Y+382901D02*
X-6028559Y+293099D01*
X-6118361Y+293099D02*
X-6028559Y+382901D01*
X-5819460Y+401500D02*
X-5819460Y+274500D01*
X-5882960Y+338000D02*
X-5755960Y+338000D01*
X-5864361Y+382901D02*
X-5774559Y+293099D01*
X-5864361Y+293099D02*
X-5774559Y+382901D01*
X-5565460Y+401500D02*
X-5565460Y+274500D01*
X-5628960Y+338000D02*
X-5501960Y+338000D01*
X-5610361Y+382901D02*
X-5520559Y+293099D01*
X-5610361Y+293099D02*
X-5520559Y+382901D01*
X-5311460Y+401500D02*
X-5311460Y+274500D01*
X-5374960Y+338000D02*
X-5247960Y+338000D01*
X-5356361Y+382901D02*
X-5266559Y+293099D01*
X-5356361Y+293099D02*
X-5266559Y+382901D01*
X-5057460Y+401500D02*
X-5057460Y+274500D01*
X-5120960Y+338000D02*
X-4993960Y+338000D01*
X-5102361Y+382901D02*
X-5012559Y+293099D01*
X-5102361Y+293099D02*
X-5012559Y+382901D01*
X-4803460Y+401500D02*
X-4803460Y+274500D01*
X-4866960Y+338000D02*
X-4739960Y+338000D01*
X-4848361Y+382901D02*
X-4758559Y+293099D01*
X-4848361Y+293099D02*
X-4758559Y+382901D01*
X-4549460Y+401500D02*
X-4549460Y+274500D01*
X-4612960Y+338000D02*
X-4485960Y+338000D01*
X-4594361Y+382901D02*
X-4504559Y+293099D01*
X-4594361Y+293099D02*
X-4504559Y+382901D01*
X-4295460Y+401500D02*
X-4295460Y+274500D01*
X-4358960Y+338000D02*
X-4231960Y+338000D01*
X-4340361Y+382901D02*
X-4250559Y+293099D01*
X-4340361Y+293099D02*
X-4250559Y+382901D01*
X-4298000Y+1163500D02*
X-4298000Y+1036500D01*
X-4361500Y+1100000D02*
X-4234500Y+1100000D01*
X-4342901Y+1144901D02*
X-4253099Y+1055099D01*
X-4342901Y+1055099D02*
X-4253099Y+1144901D01*
X-4552000Y+1163500D02*
X-4552000Y+1036500D01*
X-4615500Y+1100000D02*
X-4488500Y+1100000D01*
X-4596901Y+1144901D02*
X-4507099Y+1055099D01*
X-4596901Y+1055099D02*
X-4507099Y+1144901D01*
X-4806000Y+1163500D02*
X-4806000Y+1036500D01*
X-4869500Y+1100000D02*
X-4742500Y+1100000D01*
X-4850901Y+1144901D02*
X-4761099Y+1055099D01*
X-4850901Y+1055099D02*
X-4761099Y+1144901D01*
X-5060000Y+1163500D02*
X-5060000Y+1036500D01*
X-5123500Y+1100000D02*
X-4996500Y+1100000D01*
X-5104901Y+1144901D02*
X-5015099Y+1055099D01*
X-5104901Y+1055099D02*
X-5015099Y+1144901D01*
X-5314000Y+1163500D02*
X-5314000Y+1036500D01*
X-5377500Y+1100000D02*
X-5250500Y+1100000D01*
X-5358901Y+1144901D02*
X-5269099Y+1055099D01*
X-5358901Y+1055099D02*
X-5269099Y+1144901D01*
X-5568000Y+1163500D02*
X-5568000Y+1036500D01*
X-5631500Y+1100000D02*
X-5504500Y+1100000D01*
X-5612901Y+1144901D02*
X-5523099Y+1055099D01*
X-5612901Y+1055099D02*
X-5523099Y+1144901D01*
X-5822000Y+1163500D02*
X-5822000Y+1036500D01*
X-5885500Y+1100000D02*
X-5758500Y+1100000D01*
X-5866901Y+1144901D02*
X-5777099Y+1055099D01*
X-5866901Y+1055099D02*
X-5777099Y+1144901D01*
X-6076000Y+1163500D02*
X-6076000Y+1036500D01*
X-6139500Y+1100000D02*
X-6012500Y+1100000D01*
X-6120901Y+1144901D02*
X-6031099Y+1055099D01*
X-6120901Y+1055099D02*
X-6031099Y+1144901D01*
X-6330000Y+1163500D02*
X-6330000Y+1036500D01*
X-6393500Y+1100000D02*
X-6266500Y+1100000D01*
X-6374901Y+1144901D02*
X-6285099Y+1055099D01*
X-6374901Y+1055099D02*
X-6285099Y+1144901D01*
X-6584000Y+1163500D02*
X-6584000Y+1036500D01*
X-6647500Y+1100000D02*
X-6520500Y+1100000D01*
X-6628901Y+1144901D02*
X-6539099Y+1055099D01*
X-6628901Y+1055099D02*
X-6539099Y+1144901D01*
X-6838000Y+1163500D02*
X-6838000Y+1036500D01*
X-6901500Y+1100000D02*
X-6774500Y+1100000D01*
X-6882901Y+1144901D02*
X-6793099Y+1055099D01*
X-6882901Y+1055099D02*
X-6793099Y+1144901D01*
X-7092000Y+1163500D02*
X-7092000Y+1036500D01*
X-7155500Y+1100000D02*
X-7028500Y+1100000D01*
X-7136901Y+1144901D02*
X-7047099Y+1055099D01*
X-7136901Y+1055099D02*
X-7047099Y+1144901D01*
X-7346000Y+1163500D02*
X-7346000Y+1036500D01*
X-7409500Y+1100000D02*
X-7282500Y+1100000D01*
X-7390901Y+1144901D02*
X-7301099Y+1055099D01*
X-7390901Y+1055099D02*
X-7301099Y+1144901D01*
X-7600000Y+1163500D02*
X-7600000Y+1036500D01*
X-7663500Y+1100000D02*
X-7536500Y+1100000D01*
X-7644901Y+1144901D02*
X-7555099Y+1055099D01*
X-7644901Y+1055099D02*
X-7555099Y+1144901D01*
X-10000000Y+1963500D02*
X-10000000Y+1836500D01*
X-10063500Y+1900000D02*
X-9936500Y+1900000D01*
X-10044901Y+1944901D02*
X-9955099Y+1855099D01*
X-10044901Y+1855099D02*
X-9955099Y+1944901D01*
X-10000000Y+2463500D02*
X-10000000Y+2336500D01*
X-10063500Y+2400000D02*
X-9936500Y+2400000D01*
X-10044901Y+2444901D02*
X-9955099Y+2355099D01*
X-10044901Y+2355099D02*
X-9955099Y+2444901D01*
X-10000000Y+563500D02*
X-10000000Y+436500D01*
X-10063500Y+500000D02*
X-9936500Y+500000D01*
X-10044901Y+544901D02*
X-9955099Y+455099D01*
X-10044901Y+455099D02*
X-9955099Y+544901D01*
X-10000000Y+1063500D02*
X-10000000Y+936500D01*
X-10063500Y+1000000D02*
X-9936500Y+1000000D01*
X-10044901Y+1044901D02*
X-9955099Y+955099D01*
X-10044901Y+955099D02*
X-9955099Y+1044901D01*
X-10000000Y-836500D02*
X-10000000Y-963500D01*
X-10063500Y-900000D02*
X-9936500Y-900000D01*
X-10044901Y-855099D02*
X-9955099Y-944901D01*
X-10044901Y-944901D02*
X-9955099Y-855099D01*
X-10000000Y-336500D02*
X-10000000Y-463500D01*
X-10063500Y-400000D02*
X-9936500Y-400000D01*
X-10044901Y-355099D02*
X-9955099Y-444901D01*
X-10044901Y-444901D02*
X-9955099Y-355099D01*
X-10000000Y-2136500D02*
X-10000000Y-2263500D01*
X-10063500Y-2200000D02*
X-9936500Y-2200000D01*
X-10044901Y-2155099D02*
X-9955099Y-2244901D01*
X-10044901Y-2244901D02*
X-9955099Y-2155099D01*
X-10000000Y-1636500D02*
X-10000000Y-1763500D01*
X-10063500Y-1700000D02*
X-9936500Y-1700000D01*
X-10044901Y-1655099D02*
X-9955099Y-1744901D01*
X-10044901Y-1744901D02*
X-9955099Y-1655099D01*
X-8500000Y+1763500D02*
X-8500000Y+1636500D01*
X-8563500Y+1700000D02*
X-8436500Y+1700000D01*
X-8544901Y+1744901D02*
X-8455099Y+1655099D01*
X-8544901Y+1655099D02*
X-8455099Y+1744901D01*
X-9500000Y+1763500D02*
X-9500000Y+1636500D01*
X-9563500Y+1700000D02*
X-9436500Y+1700000D01*
X-9544901Y+1744901D02*
X-9455099Y+1655099D01*
X-9544901Y+1655099D02*
X-9455099Y+1744901D01*
X-8500000Y+363500D02*
X-8500000Y+236500D01*
X-8563500Y+300000D02*
X-8436500Y+300000D01*
X-8544901Y+344901D02*
X-8455099Y+255099D01*
X-8544901Y+255099D02*
X-8455099Y+344901D01*
X-9500000Y+363500D02*
X-9500000Y+236500D01*
X-9563500Y+300000D02*
X-9436500Y+300000D01*
X-9544901Y+344901D02*
X-9455099Y+255099D01*
X-9544901Y+255099D02*
X-9455099Y+344901D01*
X-8500000Y-1036500D02*
X-8500000Y-1163500D01*
X-8563500Y-1100000D02*
X-8436500Y-1100000D01*
X-8544901Y-1055099D02*
X-8455099Y-1144901D01*
X-8544901Y-1144901D02*
X-8455099Y-1055099D01*
X-9500000Y-1036500D02*
X-9500000Y-1163500D01*
X-9563500Y-1100000D02*
X-9436500Y-1100000D01*
X-9544901Y-1055099D02*
X-9455099Y-1144901D01*
X-9544901Y-1144901D02*
X-9455099Y-1055099D01*
X-8500000Y-2436500D02*
X-8500000Y-2563500D01*
X-8563500Y-2500000D02*
X-8436500Y-2500000D01*
X-8544901Y-2455099D02*
X-8455099Y-2544901D01*
X-8544901Y-2544901D02*
X-8455099Y-2455099D01*
X-9500000Y-2436500D02*
X-9500000Y-2563500D01*
X-9563500Y-2500000D02*
X-9436500Y-2500000D01*
X-9544901Y-2455099D02*
X-9455099Y-2544901D01*
X-9544901Y-2544901D02*
X-9455099Y-2455099D01*
X-9160000Y+603500D02*
X-9160000Y+476500D01*
X-9223500Y+540000D02*
X-9096500Y+540000D01*
X-9204901Y+584901D02*
X-9115099Y+495099D01*
X-9204901Y+495099D02*
X-9115099Y+584901D01*
X-8906000Y+603500D02*
X-8906000Y+476500D01*
X-8969500Y+540000D02*
X-8842500Y+540000D01*
X-8950901Y+584901D02*
X-8861099Y+495099D01*
X-8950901Y+495099D02*
X-8861099Y+584901D01*
X-8906000Y+1365500D02*
X-8906000Y+1238500D01*
X-8969500Y+1302000D02*
X-8842500Y+1302000D01*
X-8950901Y+1346901D02*
X-8861099Y+1257099D01*
X-8950901Y+1257099D02*
X-8861099Y+1346901D01*
X-9160000Y+1365500D02*
X-9160000Y+1238500D01*
X-9223500Y+1302000D02*
X-9096500Y+1302000D01*
X-9204901Y+1346901D02*
X-9115099Y+1257099D01*
X-9204901Y+1257099D02*
X-9115099Y+1346901D01*
X-9154000Y-798500D02*
X-9154000Y-925500D01*
X-9217500Y-862000D02*
X-9090500Y-862000D01*
X-9198901Y-817099D02*
X-9109099Y-906901D01*
X-9198901Y-906901D02*
X-9109099Y-817099D01*
X-8900000Y-798500D02*
X-8900000Y-925500D01*
X-8963500Y-862000D02*
X-8836500Y-862000D01*
X-8944901Y-817099D02*
X-8855099Y-906901D01*
X-8944901Y-906901D02*
X-8855099Y-817099D01*
X-8900000Y-36500D02*
X-8900000Y-163500D01*
X-8963500Y-100000D02*
X-8836500Y-100000D01*
X-8944901Y-55099D02*
X-8855099Y-144901D01*
X-8944901Y-144901D02*
X-8855099Y-55099D01*
X-9154000Y-36500D02*
X-9154000Y-163500D01*
X-9217500Y-100000D02*
X-9090500Y-100000D01*
X-9198901Y-55099D02*
X-9109099Y-144901D01*
X-9198901Y-144901D02*
X-9109099Y-55099D01*
X-9154000Y-2198500D02*
X-9154000Y-2325500D01*
X-9217500Y-2262000D02*
X-9090500Y-2262000D01*
X-9198901Y-2217099D02*
X-9109099Y-2306901D01*
X-9198901Y-2306901D02*
X-9109099Y-2217099D01*
X-8900000Y-2198500D02*
X-8900000Y-2325500D01*
X-8963500Y-2262000D02*
X-8836500Y-2262000D01*
X-8944901Y-2217099D02*
X-8855099Y-2306901D01*
X-8944901Y-2306901D02*
X-8855099Y-2217099D01*
X-8900000Y-1436500D02*
X-8900000Y-1563500D01*
X-8963500Y-1500000D02*
X-8836500Y-1500000D01*
X-8944901Y-1455099D02*
X-8855099Y-1544901D01*
X-8944901Y-1544901D02*
X-8855099Y-1455099D01*
X-9154000Y-1436500D02*
X-9154000Y-1563500D01*
X-9217500Y-1500000D02*
X-9090500Y-1500000D01*
X-9198901Y-1455099D02*
X-9109099Y-1544901D01*
X-9198901Y-1544901D02*
X-9109099Y-1455099D01*
X-8300000Y-1536500D02*
X-8300000Y-1663500D01*
X-8363500Y-1600000D02*
X-8236500Y-1600000D01*
X-8344901Y-1555099D02*
X-8255099Y-1644901D01*
X-8344901Y-1644901D02*
X-8255099Y-1555099D01*
X-8300000Y-2536500D02*
X-8300000Y-2663500D01*
X-8363500Y-2600000D02*
X-8236500Y-2600000D01*
X-8344901Y-2555099D02*
X-8255099Y-2644901D01*
X-8344901Y-2644901D02*
X-8255099Y-2555099D01*
X-8000000Y-1536500D02*
X-8000000Y-1663500D01*
X-8063500Y-1600000D02*
X-7936500Y-1600000D01*
X-8044901Y-1555099D02*
X-7955099Y-1644901D01*
X-8044901Y-1644901D02*
X-7955099Y-1555099D01*
X-8000000Y-2536500D02*
X-8000000Y-2663500D01*
X-8063500Y-2600000D02*
X-7936500Y-2600000D01*
X-8044901Y-2555099D02*
X-7955099Y-2644901D01*
X-8044901Y-2644901D02*
X-7955099Y-2555099D01*
X-7700000Y-1536500D02*
X-7700000Y-1663500D01*
X-7763500Y-1600000D02*
X-7636500Y-1600000D01*
X-7744901Y-1555099D02*
X-7655099Y-1644901D01*
X-7744901Y-1644901D02*
X-7655099Y-1555099D01*
X-7700000Y-2536500D02*
X-7700000Y-2663500D01*
X-7763500Y-2600000D02*
X-7636500Y-2600000D01*
X-7744901Y-2555099D02*
X-7655099Y-2644901D01*
X-7744901Y-2644901D02*
X-7655099Y-2555099D01*
X-7400000Y-1536500D02*
X-7400000Y-1663500D01*
X-7463500Y-1600000D02*
X-7336500Y-1600000D01*
X-7444901Y-1555099D02*
X-7355099Y-1644901D01*
X-7444901Y-1644901D02*
X-7355099Y-1555099D01*
X-7400000Y-2536500D02*
X-7400000Y-2663500D01*
X-7463500Y-2600000D02*
X-7336500Y-2600000D01*
X-7444901Y-2555099D02*
X-7355099Y-2644901D01*
X-7444901Y-2644901D02*
X-7355099Y-2555099D01*
X-4700000Y-2036500D02*
X-4700000Y-2163500D01*
X-4763500Y-2100000D02*
X-4636500Y-2100000D01*
X-4744901Y-2055099D02*
X-4655099Y-2144901D01*
X-4744901Y-2144901D02*
X-4655099Y-2055099D01*
X-4446000Y-2036500D02*
X-4446000Y-2163500D01*
X-4509500Y-2100000D02*
X-4382500Y-2100000D01*
X-4490901Y-2055099D02*
X-4401099Y-2144901D01*
X-4490901Y-2144901D02*
X-4401099Y-2055099D01*
X-4446000Y-1274500D02*
X-4446000Y-1401500D01*
X-4509500Y-1338000D02*
X-4382500Y-1338000D01*
X-4490901Y-1293099D02*
X-4401099Y-1382901D01*
X-4490901Y-1382901D02*
X-4401099Y-1293099D01*
X-4700000Y-1274500D02*
X-4700000Y-1401500D01*
X-4763500Y-1338000D02*
X-4636500Y-1338000D01*
X-4744901Y-1293099D02*
X-4655099Y-1382901D01*
X-4744901Y-1382901D02*
X-4655099Y-1293099D01*
X-6944901Y-1955099D02*
X-6855099Y-2044901D01*
X-6944901Y-2044901D02*
X-6855099Y-1955099D01*
X-6444901Y-1955099D02*
X-6355099Y-2044901D01*
X-6444901Y-2044901D02*
X-6355099Y-1955099D01*
X-6944901Y-2155099D02*
X-6855099Y-2244901D01*
X-6944901Y-2244901D02*
X-6855099Y-2155099D01*
X-6944901Y-2405099D02*
X-6855099Y-2494901D01*
X-6944901Y-2494901D02*
X-6855099Y-2405099D01*
X-6444901Y-2155099D02*
X-6355099Y-2244901D01*
X-6444901Y-2244901D02*
X-6355099Y-2155099D01*
X-6444901Y-2405099D02*
X-6355099Y-2494901D01*
X-6444901Y-2494901D02*
X-6355099Y-2405099D01*
X-5156500Y+1630000D02*
X-5156717Y+1635247D01*
X-5158482Y+1645742D01*
X-5162174Y+1656237D01*
X-5168202Y+1666732D01*
X-5177424Y+1677112D01*
X-5187919Y+1684800D01*
X-5198414Y+1689718D01*
X-5208909Y+1692524D01*
X-5219404Y+1693497D01*
X-5220000Y+1693500D01*
X-5283500Y+1630000D02*
X-5283283Y+1635247D01*
X-5281518Y+1645742D01*
X-5277826Y+1656237D01*
X-5271798Y+1666732D01*
X-5262576Y+1677112D01*
X-5252081Y+1684800D01*
X-5241586Y+1689718D01*
X-5231091Y+1692524D01*
X-5220596Y+1693497D01*
X-5220000Y+1693500D01*
X-5283500Y+1630000D02*
X-5283283Y+1624753D01*
X-5281518Y+1614258D01*
X-5277826Y+1603763D01*
X-5271798Y+1593268D01*
X-5262576Y+1582888D01*
X-5252081Y+1575200D01*
X-5241586Y+1570282D01*
X-5231091Y+1567476D01*
X-5220596Y+1566503D01*
X-5220000Y+1566500D01*
X-5156500Y+1630000D02*
X-5156717Y+1624753D01*
X-5158482Y+1614258D01*
X-5162174Y+1603763D01*
X-5168202Y+1593268D01*
X-5177424Y+1582888D01*
X-5187919Y+1575200D01*
X-5198414Y+1570282D01*
X-5208909Y+1567476D01*
X-5219404Y+1566503D01*
X-5220000Y+1566500D01*
X-5220000Y+1693500D02*
X-5220000Y+1566500D01*
X-5283500Y+1630000D02*
X-5156500Y+1630000D01*
X-4306500Y+1630000D02*
X-4306717Y+1635247D01*
X-4308482Y+1645742D01*
X-4312174Y+1656237D01*
X-4318202Y+1666732D01*
X-4327424Y+1677112D01*
X-4337919Y+1684800D01*
X-4348414Y+1689718D01*
X-4358909Y+1692524D01*
X-4369404Y+1693497D01*
X-4370000Y+1693500D01*
X-4433500Y+1630000D02*
X-4433283Y+1635247D01*
X-4431518Y+1645742D01*
X-4427826Y+1656237D01*
X-4421798Y+1666732D01*
X-4412576Y+1677112D01*
X-4402081Y+1684800D01*
X-4391586Y+1689718D01*
X-4381091Y+1692524D01*
X-4370596Y+1693497D01*
X-4370000Y+1693500D01*
X-4433500Y+1630000D02*
X-4433283Y+1624753D01*
X-4431518Y+1614258D01*
X-4427826Y+1603763D01*
X-4421798Y+1593268D01*
X-4412576Y+1582888D01*
X-4402081Y+1575200D01*
X-4391586Y+1570282D01*
X-4381091Y+1567476D01*
X-4370596Y+1566503D01*
X-4370000Y+1566500D01*
X-4306500Y+1630000D02*
X-4306717Y+1624753D01*
X-4308482Y+1614258D01*
X-4312174Y+1603763D01*
X-4318202Y+1593268D01*
X-4327424Y+1582888D01*
X-4337919Y+1575200D01*
X-4348414Y+1570282D01*
X-4358909Y+1567476D01*
X-4369404Y+1566503D01*
X-4370000Y+1566500D01*
X-4370000Y+1693500D02*
X-4370000Y+1566500D01*
X-4433500Y+1630000D02*
X-4306500Y+1630000D01*
X-3456500Y+1630000D02*
X-3456717Y+1635247D01*
X-3458482Y+1645742D01*
X-3462174Y+1656237D01*
X-3468202Y+1666732D01*
X-3477424Y+1677112D01*
X-3487919Y+1684800D01*
X-3498414Y+1689718D01*
X-3508909Y+1692524D01*
X-3519404Y+1693497D01*
X-3520000Y+1693500D01*
X-3583500Y+1630000D02*
X-3583283Y+1635247D01*
X-3581518Y+1645742D01*
X-3577826Y+1656237D01*
X-3571798Y+1666732D01*
X-3562576Y+1677112D01*
X-3552081Y+1684800D01*
X-3541586Y+1689718D01*
X-3531091Y+1692524D01*
X-3520596Y+1693497D01*
X-3520000Y+1693500D01*
X-3583500Y+1630000D02*
X-3583283Y+1624753D01*
X-3581518Y+1614258D01*
X-3577826Y+1603763D01*
X-3571798Y+1593268D01*
X-3562576Y+1582888D01*
X-3552081Y+1575200D01*
X-3541586Y+1570282D01*
X-3531091Y+1567476D01*
X-3520596Y+1566503D01*
X-3520000Y+1566500D01*
X-3456500Y+1630000D02*
X-3456717Y+1624753D01*
X-3458482Y+1614258D01*
X-3462174Y+1603763D01*
X-3468202Y+1593268D01*
X-3477424Y+1582888D01*
X-3487919Y+1575200D01*
X-3498414Y+1570282D01*
X-3508909Y+1567476D01*
X-3519404Y+1566503D01*
X-3520000Y+1566500D01*
X-3520000Y+1693500D02*
X-3520000Y+1566500D01*
X-3583500Y+1630000D02*
X-3456500Y+1630000D01*
X-2606500Y+1630000D02*
X-2606717Y+1635247D01*
X-2608482Y+1645742D01*
X-2612174Y+1656237D01*
X-2618202Y+1666732D01*
X-2627424Y+1677112D01*
X-2637919Y+1684800D01*
X-2648414Y+1689718D01*
X-2658909Y+1692524D01*
X-2669404Y+1693497D01*
X-2670000Y+1693500D01*
X-2733500Y+1630000D02*
X-2733283Y+1635247D01*
X-2731518Y+1645742D01*
X-2727826Y+1656237D01*
X-2721798Y+1666732D01*
X-2712576Y+1677112D01*
X-2702081Y+1684800D01*
X-2691586Y+1689718D01*
X-2681091Y+1692524D01*
X-2670596Y+1693497D01*
X-2670000Y+1693500D01*
X-2733500Y+1630000D02*
X-2733283Y+1624753D01*
X-2731518Y+1614258D01*
X-2727826Y+1603763D01*
X-2721798Y+1593268D01*
X-2712576Y+1582888D01*
X-2702081Y+1575200D01*
X-2691586Y+1570282D01*
X-2681091Y+1567476D01*
X-2670596Y+1566503D01*
X-2670000Y+1566500D01*
X-2606500Y+1630000D02*
X-2606717Y+1624753D01*
X-2608482Y+1614258D01*
X-2612174Y+1603763D01*
X-2618202Y+1593268D01*
X-2627424Y+1582888D01*
X-2637919Y+1575200D01*
X-2648414Y+1570282D01*
X-2658909Y+1567476D01*
X-2669404Y+1566503D01*
X-2670000Y+1566500D01*
X-2670000Y+1693500D02*
X-2670000Y+1566500D01*
X-2733500Y+1630000D02*
X-2606500Y+1630000D01*
X-9100000Y+2113500D02*
X-9100000Y+1986500D01*
X-9163500Y+2050000D02*
X-9036500Y+2050000D01*
X-9144901Y+2094901D02*
X-9055099Y+2005099D01*
X-9144901Y+2005099D02*
X-9055099Y+2094901D01*
X-8846000Y+2113500D02*
X-8846000Y+1986500D01*
X-8909500Y+2050000D02*
X-8782500Y+2050000D01*
X-8890901Y+2094901D02*
X-8801099Y+2005099D01*
X-8890901Y+2005099D02*
X-8801099Y+2094901D01*
X-8846000Y+2875500D02*
X-8846000Y+2748500D01*
X-8909500Y+2812000D02*
X-8782500Y+2812000D01*
X-8890901Y+2856901D02*
X-8801099Y+2767099D01*
X-8890901Y+2767099D02*
X-8801099Y+2856901D01*
X-9100000Y+2875500D02*
X-9100000Y+2748500D01*
X-9163500Y+2812000D02*
X-9036500Y+2812000D01*
X-9144901Y+2856901D02*
X-9055099Y+2767099D01*
X-9144901Y+2767099D02*
X-9055099Y+2856901D01*
X-5680000Y-2336500D02*
X-5680000Y-2463500D01*
X-5743500Y-2400000D02*
X-5616500Y-2400000D01*
X-5724901Y-2355099D02*
X-5635099Y-2444901D01*
X-5724901Y-2444901D02*
X-5635099Y-2355099D01*
X-4680000Y-2336500D02*
X-4680000Y-2463500D01*
X-4743500Y-2400000D02*
X-4616500Y-2400000D01*
X-4724901Y-2355099D02*
X-4635099Y-2444901D01*
X-4724901Y-2444901D02*
X-4635099Y-2355099D01*
X+3390000Y+2940000D02*
X+3450453Y+2933904D01*
X+3506763Y+2916421D01*
X+3557722Y+2888758D01*
X+3602122Y+2852122D01*
X+3638758Y+2807722D01*
X+3666421Y+2756763D01*
X+3683904Y+2700453D01*
X+3690000Y+2640000D01*
X+3390000Y-2760000D02*
X+3450453Y-2753904D01*
X+3506763Y-2736421D01*
X+3557722Y-2708758D01*
X+3602122Y-2672122D01*
X+3638758Y-2627722D01*
X+3666421Y-2576763D01*
X+3683904Y-2520453D01*
X+3690000Y-2460000D01*
X-10810000Y-2460000D02*
X-10803904Y-2520453D01*
X-10786421Y-2576763D01*
X-10758758Y-2627722D01*
X-10722122Y-2672122D01*
X-10677722Y-2708758D01*
X-10626763Y-2736421D01*
X-10570453Y-2753904D01*
X-10510000Y-2760000D01*
X-10810000Y+2640000D02*
X-10803904Y+2700453D01*
X-10786421Y+2756763D01*
X-10758758Y+2807722D01*
X-10722122Y+2852122D01*
X-10677722Y+2888758D01*
X-10626763Y+2916421D01*
X-10570453Y+2933904D01*
X-10510000Y+2940000D01*
X-10810000Y-2460000D02*
X-10810000Y+2640000D01*
X-10510000Y+2940000D02*
X+3390000Y+2940000D01*
X+3690000Y+2640000D02*
X+3690000Y-2460000D01*
X+3390000Y-2760000D02*
X-10510000Y-2760000D01*
D39*
X-10815080Y-4746280D02*
X-8170940Y-4746280D01*
X-8170940Y-3019080D01*
X-10815080Y-3019080D01*
X-10815080Y-4746280D01*
D40*
X-10347718Y-3019080D02*
X-10347718Y-4746280D01*
X-9534918Y-3019080D02*
X-9534918Y-4746280D01*
X-8701798Y-3019080D02*
X-8701798Y-4746280D01*
X-10815080Y-3292130D02*
X-8170940Y-3292130D01*
X-10815080Y-3533430D02*
X-8170940Y-3533430D01*
X-10815080Y-3774730D02*
X-8170940Y-3774730D01*
X-10815080Y-4016030D02*
X-8170940Y-4016030D01*
X-10815080Y-4257330D02*
X-8170940Y-4257330D01*
X-10815080Y-4498630D02*
X-8170940Y-4498630D01*
D39*
X-10757930Y-3182910D02*
X-10742690Y-3198150D01*
X-10681730Y-3198150D01*
X-10666490Y-3182910D01*
X-10666490Y-3167670D01*
X-10681730Y-3152430D01*
X-10742690Y-3152430D01*
X-10757930Y-3137190D01*
X-10757930Y-3121950D01*
X-10742690Y-3106710D01*
X-10681730Y-3106710D01*
X-10666490Y-3121950D01*
X-10544570Y-3106710D02*
X-10636010Y-3198150D01*
X-10636010Y-3106710D02*
X-10590290Y-3152430D01*
X-10514090Y-3198150D02*
X-10514090Y-3106710D01*
X-10468370Y-3152430D01*
X-10422650Y-3106710D01*
X-10422650Y-3198150D01*
X-10290570Y-3182910D02*
X-10275330Y-3198150D01*
X-10214370Y-3198150D01*
X-10199130Y-3182910D01*
X-10199130Y-3167670D01*
X-10214370Y-3152430D01*
X-10275330Y-3152430D01*
X-10290570Y-3137190D01*
X-10290570Y-3121950D01*
X-10275330Y-3106710D01*
X-10214370Y-3106710D01*
X-10199130Y-3121950D01*
X-10153410Y-3106710D02*
X-10092450Y-3106710D01*
X-10122930Y-3106710D02*
X-10122930Y-3198150D01*
X-10153410Y-3198150D02*
X-10092450Y-3198150D01*
X-10046730Y-3106710D02*
X-9955290Y-3106710D01*
X-10046730Y-3198150D01*
X-9955290Y-3198150D01*
X-9833370Y-3198150D02*
X-9924810Y-3198150D01*
X-9924810Y-3106710D01*
X-9833370Y-3106710D01*
X-9924810Y-3152430D02*
X-9863850Y-3152430D01*
X-9477770Y-3198150D02*
X-9477770Y-3106710D01*
X-9401570Y-3106710D01*
X-9386330Y-3121950D01*
X-9386330Y-3137190D01*
X-9401570Y-3152430D01*
X-9477770Y-3152430D01*
X-9355850Y-3106710D02*
X-9355850Y-3198150D01*
X-9264410Y-3198150D01*
X-9233930Y-3198150D02*
X-9233930Y-3137190D01*
X-9203450Y-3106710D01*
X-9172970Y-3106710D01*
X-9142490Y-3137190D01*
X-9142490Y-3198150D01*
X-9233930Y-3167670D02*
X-9142490Y-3167670D01*
X-9112010Y-3106710D02*
X-9020570Y-3106710D01*
X-9066290Y-3106710D02*
X-9066290Y-3198150D01*
X-8898650Y-3198150D02*
X-8990090Y-3198150D01*
X-8990090Y-3106710D01*
X-8898650Y-3106710D01*
X-8990090Y-3152430D02*
X-8929130Y-3152430D01*
X-8868170Y-3198150D02*
X-8868170Y-3106710D01*
X-8807210Y-3106710D01*
X-8776730Y-3137190D01*
X-8776730Y-3167670D01*
X-8807210Y-3198150D01*
X-8868170Y-3198150D01*
X-8644650Y-3137190D02*
X-8614170Y-3106710D01*
X-8583690Y-3106710D01*
X-8553210Y-3137190D01*
X-8553210Y-3167670D01*
X-8583690Y-3198150D01*
X-8614170Y-3198150D01*
X-8644650Y-3167670D01*
X-8644650Y-3137190D01*
X-8583690Y-3167670D02*
X-8553210Y-3198150D01*
X-8522730Y-3106710D02*
X-8431290Y-3106710D01*
X-8477010Y-3106710D02*
X-8477010Y-3198150D01*
X-8309370Y-3106710D02*
X-8400810Y-3198150D01*
X-8400810Y-3106710D02*
X-8355090Y-3152430D01*
D18*
X-10568700Y-3342930D02*
X-10568700Y-3469930D01*
X-10632200Y-3406430D02*
X-10505200Y-3406430D01*
D39*
X-10271520Y-3431830D02*
X-10271520Y-3381030D01*
X-10258820Y-3368330D01*
X-10208020Y-3368330D01*
X-10195320Y-3381030D01*
X-10195320Y-3431830D01*
X-10208020Y-3444530D01*
X-10258820Y-3444530D01*
X-10271520Y-3431830D01*
X-10271520Y-3444530D02*
X-10195320Y-3368330D01*
X-10131820Y-3431830D02*
X-10119120Y-3431830D01*
X-10119120Y-3444530D01*
X-10131820Y-3444530D01*
X-10131820Y-3431830D01*
X-9992120Y-3368330D02*
X-10055620Y-3368330D01*
X-10055620Y-3393730D01*
X-10004820Y-3393730D01*
X-9992120Y-3406430D01*
X-9992120Y-3431830D01*
X-10004820Y-3444530D01*
X-10042920Y-3444530D01*
X-10055620Y-3431830D01*
X-9966720Y-3431830D02*
X-9966720Y-3381030D01*
X-9954020Y-3368330D01*
X-9903220Y-3368330D01*
X-9890520Y-3381030D01*
X-9890520Y-3431830D01*
X-9903220Y-3444530D01*
X-9954020Y-3444530D01*
X-9966720Y-3431830D01*
X-9966720Y-3444530D02*
X-9890520Y-3368330D01*
X-9839720Y-3406430D02*
X-9852420Y-3393730D01*
X-9852420Y-3381030D01*
X-9839720Y-3368330D01*
X-9801620Y-3368330D01*
X-9788920Y-3381030D01*
X-9788920Y-3393730D01*
X-9801620Y-3406430D01*
X-9839720Y-3406430D01*
X-9852420Y-3419130D01*
X-9852420Y-3431830D01*
X-9839720Y-3444530D01*
X-9801620Y-3444530D01*
X-9788920Y-3431830D01*
X-9788920Y-3419130D01*
X-9801620Y-3406430D01*
X-9763520Y-3444530D02*
X-9763520Y-3393730D01*
X-9763520Y-3406430D02*
X-9750820Y-3393730D01*
X-9725420Y-3419130D01*
X-9700020Y-3393730D01*
X-9687320Y-3406430D01*
X-9687320Y-3444530D01*
X-9661920Y-3444530D02*
X-9661920Y-3393730D01*
X-9661920Y-3406430D02*
X-9649220Y-3393730D01*
X-9623820Y-3419130D01*
X-9598420Y-3393730D01*
X-9585720Y-3406430D01*
X-9585720Y-3444530D01*
X-9369820Y-3368330D02*
X-9446020Y-3444530D01*
X-9446020Y-3368330D02*
X-9407920Y-3406430D01*
X-9268220Y-3444530D02*
X-9344420Y-3444530D01*
X-9344420Y-3368330D01*
X-9268220Y-3368330D01*
X-9344420Y-3406430D02*
X-9293620Y-3406430D01*
X-9242820Y-3431830D02*
X-9230120Y-3444530D01*
X-9179320Y-3444530D01*
X-9166620Y-3431830D01*
X-9166620Y-3419130D01*
X-9179320Y-3406430D01*
X-9230120Y-3406430D01*
X-9242820Y-3393730D01*
X-9242820Y-3381030D01*
X-9230120Y-3368330D01*
X-9179320Y-3368330D01*
X-9166620Y-3381030D01*
X-8574800Y-3393730D02*
X-8549400Y-3368330D01*
X-8549400Y-3444530D01*
D18*
X-10613601Y-3602829D02*
X-10523799Y-3692631D01*
X-10613601Y-3692631D02*
X-10523799Y-3602829D01*
D39*
X-10271520Y-3673130D02*
X-10271520Y-3622330D01*
X-10258820Y-3609630D01*
X-10208020Y-3609630D01*
X-10195320Y-3622330D01*
X-10195320Y-3673130D01*
X-10208020Y-3685830D01*
X-10258820Y-3685830D01*
X-10271520Y-3673130D01*
X-10271520Y-3685830D02*
X-10195320Y-3609630D01*
X-10131820Y-3673130D02*
X-10119120Y-3673130D01*
X-10119120Y-3685830D01*
X-10131820Y-3685830D01*
X-10131820Y-3673130D01*
X-9992120Y-3622330D02*
X-10004820Y-3609630D01*
X-10042920Y-3609630D01*
X-10055620Y-3622330D01*
X-10055620Y-3673130D01*
X-10042920Y-3685830D01*
X-10004820Y-3685830D01*
X-9992120Y-3673130D01*
X-9992120Y-3660430D01*
X-10004820Y-3647730D01*
X-10055620Y-3647730D01*
X-9954020Y-3622330D02*
X-9941320Y-3609630D01*
X-9903220Y-3609630D01*
X-9890520Y-3622330D01*
X-9890520Y-3635030D01*
X-9903220Y-3647730D01*
X-9890520Y-3660430D01*
X-9890520Y-3673130D01*
X-9903220Y-3685830D01*
X-9941320Y-3685830D01*
X-9954020Y-3673130D01*
X-9928620Y-3647730D02*
X-9903220Y-3647730D01*
X-9788920Y-3609630D02*
X-9852420Y-3609630D01*
X-9852420Y-3635030D01*
X-9801620Y-3635030D01*
X-9788920Y-3647730D01*
X-9788920Y-3673130D01*
X-9801620Y-3685830D01*
X-9839720Y-3685830D01*
X-9852420Y-3673130D01*
X-9763520Y-3685830D02*
X-9763520Y-3635030D01*
X-9763520Y-3647730D02*
X-9750820Y-3635030D01*
X-9725420Y-3660430D01*
X-9700020Y-3635030D01*
X-9687320Y-3647730D01*
X-9687320Y-3685830D01*
X-9661920Y-3685830D02*
X-9661920Y-3635030D01*
X-9661920Y-3647730D02*
X-9649220Y-3635030D01*
X-9623820Y-3660430D01*
X-9598420Y-3635030D01*
X-9585720Y-3647730D01*
X-9585720Y-3685830D01*
X-9369820Y-3609630D02*
X-9446020Y-3685830D01*
X-9446020Y-3609630D02*
X-9407920Y-3647730D01*
X-9268220Y-3685830D02*
X-9344420Y-3685830D01*
X-9344420Y-3609630D01*
X-9268220Y-3609630D01*
X-9344420Y-3647730D02*
X-9293620Y-3647730D01*
X-9242820Y-3673130D02*
X-9230120Y-3685830D01*
X-9179320Y-3685830D01*
X-9166620Y-3673130D01*
X-9166620Y-3660430D01*
X-9179320Y-3647730D01*
X-9230120Y-3647730D01*
X-9242820Y-3635030D01*
X-9242820Y-3622330D01*
X-9230120Y-3609630D01*
X-9179320Y-3609630D01*
X-9166620Y-3622330D01*
X-8524000Y-3622330D02*
X-8536700Y-3609630D01*
X-8574800Y-3609630D01*
X-8587500Y-3622330D01*
X-8587500Y-3673130D01*
X-8574800Y-3685830D01*
X-8536700Y-3685830D01*
X-8524000Y-3673130D01*
X-8524000Y-3660430D01*
X-8536700Y-3647730D01*
X-8587500Y-3647730D01*
D18*
X-10568700Y-3825530D02*
X-10568700Y-3952530D01*
X-10632200Y-3889030D02*
X-10505200Y-3889030D01*
X-10613601Y-3844129D02*
X-10523799Y-3933931D01*
X-10613601Y-3933931D02*
X-10523799Y-3844129D01*
D39*
X-10271520Y-3914430D02*
X-10271520Y-3863630D01*
X-10258820Y-3850930D01*
X-10208020Y-3850930D01*
X-10195320Y-3863630D01*
X-10195320Y-3914430D01*
X-10208020Y-3927130D01*
X-10258820Y-3927130D01*
X-10271520Y-3914430D01*
X-10271520Y-3927130D02*
X-10195320Y-3850930D01*
X-10131820Y-3914430D02*
X-10119120Y-3914430D01*
X-10119120Y-3927130D01*
X-10131820Y-3927130D01*
X-10131820Y-3914430D01*
X-10055620Y-3850930D02*
X-9992120Y-3850930D01*
X-9992120Y-3863630D01*
X-10055620Y-3927130D01*
X-9890520Y-3863630D02*
X-9903220Y-3850930D01*
X-9941320Y-3850930D01*
X-9954020Y-3863630D01*
X-9954020Y-3914430D01*
X-9941320Y-3927130D01*
X-9903220Y-3927130D01*
X-9890520Y-3914430D01*
X-9890520Y-3901730D01*
X-9903220Y-3889030D01*
X-9954020Y-3889030D01*
X-9852420Y-3863630D02*
X-9839720Y-3850930D01*
X-9801620Y-3850930D01*
X-9788920Y-3863630D01*
X-9788920Y-3876330D01*
X-9801620Y-3889030D01*
X-9839720Y-3889030D01*
X-9852420Y-3901730D01*
X-9852420Y-3927130D01*
X-9788920Y-3927130D01*
X-9763520Y-3927130D02*
X-9763520Y-3876330D01*
X-9763520Y-3889030D02*
X-9750820Y-3876330D01*
X-9725420Y-3901730D01*
X-9700020Y-3876330D01*
X-9687320Y-3889030D01*
X-9687320Y-3927130D01*
X-9661920Y-3927130D02*
X-9661920Y-3876330D01*
X-9661920Y-3889030D02*
X-9649220Y-3876330D01*
X-9623820Y-3901730D01*
X-9598420Y-3876330D01*
X-9585720Y-3889030D01*
X-9585720Y-3927130D01*
X-9369820Y-3850930D02*
X-9446020Y-3927130D01*
X-9446020Y-3850930D02*
X-9407920Y-3889030D01*
X-9268220Y-3927130D02*
X-9344420Y-3927130D01*
X-9344420Y-3850930D01*
X-9268220Y-3850930D01*
X-9344420Y-3889030D02*
X-9293620Y-3889030D01*
X-9242820Y-3914430D02*
X-9230120Y-3927130D01*
X-9179320Y-3927130D01*
X-9166620Y-3914430D01*
X-9166620Y-3901730D01*
X-9179320Y-3889030D01*
X-9230120Y-3889030D01*
X-9242820Y-3876330D01*
X-9242820Y-3863630D01*
X-9230120Y-3850930D01*
X-9179320Y-3850930D01*
X-9166620Y-3863630D01*
X-8587500Y-3850930D02*
X-8524000Y-3850930D01*
X-8524000Y-3863630D01*
X-8587500Y-3927130D01*
X-8422400Y-3863630D02*
X-8435100Y-3850930D01*
X-8473200Y-3850930D01*
X-8485900Y-3863630D01*
X-8485900Y-3914430D01*
X-8473200Y-3927130D01*
X-8435100Y-3927130D01*
X-8422400Y-3914430D01*
X-8422400Y-3901730D01*
X-8435100Y-3889030D01*
X-8485900Y-3889030D01*
D18*
X-10505200Y-4130330D02*
X-10505417Y-4125083D01*
X-10507182Y-4114588D01*
X-10510874Y-4104093D01*
X-10516902Y-4093598D01*
X-10526124Y-4083218D01*
X-10536619Y-4075530D01*
X-10547114Y-4070612D01*
X-10557609Y-4067806D01*
X-10568104Y-4066833D01*
X-10568700Y-4066830D01*
X-10632200Y-4130330D02*
X-10631983Y-4125083D01*
X-10630218Y-4114588D01*
X-10626526Y-4104093D01*
X-10620498Y-4093598D01*
X-10611276Y-4083218D01*
X-10600781Y-4075530D01*
X-10590286Y-4070612D01*
X-10579791Y-4067806D01*
X-10569296Y-4066833D01*
X-10568700Y-4066830D01*
X-10632200Y-4130330D02*
X-10631983Y-4135577D01*
X-10630218Y-4146072D01*
X-10626526Y-4156567D01*
X-10620498Y-4167062D01*
X-10611276Y-4177442D01*
X-10600781Y-4185130D01*
X-10590286Y-4190048D01*
X-10579791Y-4192854D01*
X-10569296Y-4193827D01*
X-10568700Y-4193830D01*
X-10505200Y-4130330D02*
X-10505417Y-4135577D01*
X-10507182Y-4146072D01*
X-10510874Y-4156567D01*
X-10516902Y-4167062D01*
X-10526124Y-4177442D01*
X-10536619Y-4185130D01*
X-10547114Y-4190048D01*
X-10557609Y-4192854D01*
X-10568104Y-4193827D01*
X-10568700Y-4193830D01*
X-10568700Y-4066830D02*
X-10568700Y-4193830D01*
X-10632200Y-4130330D02*
X-10505200Y-4130330D01*
D39*
X-10246120Y-4117630D02*
X-10220720Y-4092230D01*
X-10220720Y-4168430D01*
X-10131820Y-4155730D02*
X-10119120Y-4155730D01*
X-10119120Y-4168430D01*
X-10131820Y-4168430D01*
X-10131820Y-4155730D01*
X-10042920Y-4130330D02*
X-10055620Y-4117630D01*
X-10055620Y-4104930D01*
X-10042920Y-4092230D01*
X-10004820Y-4092230D01*
X-9992120Y-4104930D01*
X-9992120Y-4117630D01*
X-10004820Y-4130330D01*
X-10042920Y-4130330D01*
X-10055620Y-4143030D01*
X-10055620Y-4155730D01*
X-10042920Y-4168430D01*
X-10004820Y-4168430D01*
X-9992120Y-4155730D01*
X-9992120Y-4143030D01*
X-10004820Y-4130330D01*
X-9966720Y-4168430D02*
X-9966720Y-4117630D01*
X-9966720Y-4130330D02*
X-9954020Y-4117630D01*
X-9928620Y-4143030D01*
X-9903220Y-4117630D01*
X-9890520Y-4130330D01*
X-9890520Y-4168430D01*
X-9865120Y-4168430D02*
X-9865120Y-4117630D01*
X-9865120Y-4130330D02*
X-9852420Y-4117630D01*
X-9827020Y-4143030D01*
X-9801620Y-4117630D01*
X-9788920Y-4130330D01*
X-9788920Y-4168430D01*
X-9369820Y-4092230D02*
X-9446020Y-4168430D01*
X-9446020Y-4092230D02*
X-9407920Y-4130330D01*
X-9268220Y-4168430D02*
X-9344420Y-4168430D01*
X-9344420Y-4092230D01*
X-9268220Y-4092230D01*
X-9344420Y-4130330D02*
X-9293620Y-4130330D01*
X-9242820Y-4155730D02*
X-9230120Y-4168430D01*
X-9179320Y-4168430D01*
X-9166620Y-4155730D01*
X-9166620Y-4143030D01*
X-9179320Y-4130330D01*
X-9230120Y-4130330D01*
X-9242820Y-4117630D01*
X-9242820Y-4104930D01*
X-9230120Y-4092230D01*
X-9179320Y-4092230D01*
X-9166620Y-4104930D01*
X-8574800Y-4130330D02*
X-8587500Y-4117630D01*
X-8587500Y-4104930D01*
X-8574800Y-4092230D01*
X-8536700Y-4092230D01*
X-8524000Y-4104930D01*
X-8524000Y-4117630D01*
X-8536700Y-4130330D01*
X-8574800Y-4130330D01*
X-8587500Y-4143030D01*
X-8587500Y-4155730D01*
X-8574800Y-4168430D01*
X-8536700Y-4168430D01*
X-8524000Y-4155730D01*
X-8524000Y-4143030D01*
X-8536700Y-4130330D01*
D18*
X-10505200Y-4371630D02*
X-10505417Y-4366383D01*
X-10507182Y-4355888D01*
X-10510874Y-4345393D01*
X-10516902Y-4334898D01*
X-10526124Y-4324518D01*
X-10536619Y-4316830D01*
X-10547114Y-4311912D01*
X-10557609Y-4309106D01*
X-10568104Y-4308133D01*
X-10568700Y-4308130D01*
X-10632200Y-4371630D02*
X-10631983Y-4366383D01*
X-10630218Y-4355888D01*
X-10626526Y-4345393D01*
X-10620498Y-4334898D01*
X-10611276Y-4324518D01*
X-10600781Y-4316830D01*
X-10590286Y-4311912D01*
X-10579791Y-4309106D01*
X-10569296Y-4308133D01*
X-10568700Y-4308130D01*
X-10632200Y-4371630D02*
X-10631983Y-4376877D01*
X-10630218Y-4387372D01*
X-10626526Y-4397867D01*
X-10620498Y-4408362D01*
X-10611276Y-4418742D01*
X-10600781Y-4426430D01*
X-10590286Y-4431348D01*
X-10579791Y-4434154D01*
X-10569296Y-4435127D01*
X-10568700Y-4435130D01*
X-10505200Y-4371630D02*
X-10505417Y-4376877D01*
X-10507182Y-4387372D01*
X-10510874Y-4397867D01*
X-10516902Y-4408362D01*
X-10526124Y-4418742D01*
X-10536619Y-4426430D01*
X-10547114Y-4431348D01*
X-10557609Y-4434154D01*
X-10568104Y-4435127D01*
X-10568700Y-4435130D01*
X-10613601Y-4326729D02*
X-10523799Y-4416531D01*
X-10613601Y-4416531D02*
X-10523799Y-4326729D01*
D39*
X-10246120Y-4358930D02*
X-10220720Y-4333530D01*
X-10220720Y-4409730D01*
X-10131820Y-4397030D02*
X-10119120Y-4397030D01*
X-10119120Y-4409730D01*
X-10131820Y-4409730D01*
X-10131820Y-4397030D01*
X-10068320Y-4397030D02*
X-10068320Y-4346230D01*
X-10055620Y-4333530D01*
X-10004820Y-4333530D01*
X-9992120Y-4346230D01*
X-9992120Y-4397030D01*
X-10004820Y-4409730D01*
X-10055620Y-4409730D01*
X-10068320Y-4397030D01*
X-10068320Y-4409730D02*
X-9992120Y-4333530D01*
X-9941320Y-4358930D02*
X-9915920Y-4333530D01*
X-9915920Y-4409730D01*
X-9788920Y-4346230D02*
X-9801620Y-4333530D01*
X-9839720Y-4333530D01*
X-9852420Y-4346230D01*
X-9852420Y-4397030D01*
X-9839720Y-4409730D01*
X-9801620Y-4409730D01*
X-9788920Y-4397030D01*
X-9788920Y-4384330D01*
X-9801620Y-4371630D01*
X-9852420Y-4371630D01*
X-9763520Y-4409730D02*
X-9763520Y-4358930D01*
X-9763520Y-4371630D02*
X-9750820Y-4358930D01*
X-9725420Y-4384330D01*
X-9700020Y-4358930D01*
X-9687320Y-4371630D01*
X-9687320Y-4409730D01*
X-9661920Y-4409730D02*
X-9661920Y-4358930D01*
X-9661920Y-4371630D02*
X-9649220Y-4358930D01*
X-9623820Y-4384330D01*
X-9598420Y-4358930D01*
X-9585720Y-4371630D01*
X-9585720Y-4409730D01*
X-9369820Y-4333530D02*
X-9446020Y-4409730D01*
X-9446020Y-4333530D02*
X-9407920Y-4371630D01*
X-9268220Y-4409730D02*
X-9344420Y-4409730D01*
X-9344420Y-4333530D01*
X-9268220Y-4333530D01*
X-9344420Y-4371630D02*
X-9293620Y-4371630D01*
X-9242820Y-4397030D02*
X-9230120Y-4409730D01*
X-9179320Y-4409730D01*
X-9166620Y-4397030D01*
X-9166620Y-4384330D01*
X-9179320Y-4371630D01*
X-9230120Y-4371630D01*
X-9242820Y-4358930D01*
X-9242820Y-4346230D01*
X-9230120Y-4333530D01*
X-9179320Y-4333530D01*
X-9166620Y-4346230D01*
X-8524000Y-4358930D02*
X-8536700Y-4371630D01*
X-8574800Y-4371630D01*
X-8587500Y-4358930D01*
X-8587500Y-4346230D01*
X-8574800Y-4333530D01*
X-8536700Y-4333530D01*
X-8524000Y-4346230D01*
X-8524000Y-4397030D01*
X-8536700Y-4409730D01*
X-8574800Y-4409730D01*
D18*
X-10505200Y-4612930D02*
X-10505417Y-4607683D01*
X-10507182Y-4597188D01*
X-10510874Y-4586693D01*
X-10516902Y-4576198D01*
X-10526124Y-4565818D01*
X-10536619Y-4558130D01*
X-10547114Y-4553212D01*
X-10557609Y-4550406D01*
X-10568104Y-4549433D01*
X-10568700Y-4549430D01*
X-10632200Y-4612930D02*
X-10631983Y-4607683D01*
X-10630218Y-4597188D01*
X-10626526Y-4586693D01*
X-10620498Y-4576198D01*
X-10611276Y-4565818D01*
X-10600781Y-4558130D01*
X-10590286Y-4553212D01*
X-10579791Y-4550406D01*
X-10569296Y-4549433D01*
X-10568700Y-4549430D01*
X-10632200Y-4612930D02*
X-10631983Y-4618177D01*
X-10630218Y-4628672D01*
X-10626526Y-4639167D01*
X-10620498Y-4649662D01*
X-10611276Y-4660042D01*
X-10600781Y-4667730D01*
X-10590286Y-4672648D01*
X-10579791Y-4675454D01*
X-10569296Y-4676427D01*
X-10568700Y-4676430D01*
X-10505200Y-4612930D02*
X-10505417Y-4618177D01*
X-10507182Y-4628672D01*
X-10510874Y-4639167D01*
X-10516902Y-4649662D01*
X-10526124Y-4660042D01*
X-10536619Y-4667730D01*
X-10547114Y-4672648D01*
X-10557609Y-4675454D01*
X-10568104Y-4676427D01*
X-10568700Y-4676430D01*
X-10568700Y-4549430D02*
X-10568700Y-4676430D01*
X-10632200Y-4612930D02*
X-10505200Y-4612930D01*
X-10505417Y-4607683D01*
X-10507182Y-4597188D01*
X-10510874Y-4586693D01*
X-10516902Y-4576198D01*
X-10526124Y-4565818D01*
X-10536619Y-4558130D01*
X-10547114Y-4553212D01*
X-10557609Y-4550406D01*
X-10568104Y-4549433D01*
X-10568700Y-4549430D01*
X-10632200Y-4612930D02*
X-10631983Y-4607683D01*
X-10630218Y-4597188D01*
X-10626526Y-4586693D01*
X-10620498Y-4576198D01*
X-10611276Y-4565818D01*
X-10600781Y-4558130D01*
X-10590286Y-4553212D01*
X-10579791Y-4550406D01*
X-10569296Y-4549433D01*
X-10568700Y-4549430D01*
X-10632200Y-4612930D02*
X-10631983Y-4618177D01*
X-10630218Y-4628672D01*
X-10626526Y-4639167D01*
X-10620498Y-4649662D01*
X-10611276Y-4660042D01*
X-10600781Y-4667730D01*
X-10590286Y-4672648D01*
X-10579791Y-4675454D01*
X-10569296Y-4676427D01*
X-10568700Y-4676430D01*
X-10505200Y-4612930D02*
X-10505417Y-4618177D01*
X-10507182Y-4628672D01*
X-10510874Y-4639167D01*
X-10516902Y-4649662D01*
X-10526124Y-4660042D01*
X-10536619Y-4667730D01*
X-10547114Y-4672648D01*
X-10557609Y-4675454D01*
X-10568104Y-4676427D01*
X-10568700Y-4676430D01*
X-10613601Y-4568029D02*
X-10523799Y-4657831D01*
X-10613601Y-4657831D02*
X-10523799Y-4568029D01*
D39*
X-10246120Y-4600230D02*
X-10220720Y-4574830D01*
X-10220720Y-4651030D01*
X-10131820Y-4638330D02*
X-10119120Y-4638330D01*
X-10119120Y-4651030D01*
X-10131820Y-4651030D01*
X-10131820Y-4638330D01*
X-9992120Y-4574830D02*
X-10055620Y-4574830D01*
X-10055620Y-4600230D01*
X-10004820Y-4600230D01*
X-9992120Y-4612930D01*
X-9992120Y-4638330D01*
X-10004820Y-4651030D01*
X-10042920Y-4651030D01*
X-10055620Y-4638330D01*
X-9954020Y-4587530D02*
X-9941320Y-4574830D01*
X-9903220Y-4574830D01*
X-9890520Y-4587530D01*
X-9890520Y-4600230D01*
X-9903220Y-4612930D01*
X-9941320Y-4612930D01*
X-9954020Y-4625630D01*
X-9954020Y-4651030D01*
X-9890520Y-4651030D01*
X-9788920Y-4625630D02*
X-9865120Y-4625630D01*
X-9814320Y-4574830D01*
X-9814320Y-4651030D01*
X-9763520Y-4651030D02*
X-9763520Y-4600230D01*
X-9763520Y-4612930D02*
X-9750820Y-4600230D01*
X-9725420Y-4625630D01*
X-9700020Y-4600230D01*
X-9687320Y-4612930D01*
X-9687320Y-4651030D01*
X-9661920Y-4651030D02*
X-9661920Y-4600230D01*
X-9661920Y-4612930D02*
X-9649220Y-4600230D01*
X-9623820Y-4625630D01*
X-9598420Y-4600230D01*
X-9585720Y-4612930D01*
X-9585720Y-4651030D01*
X-9369820Y-4574830D02*
X-9446020Y-4651030D01*
X-9446020Y-4574830D02*
X-9407920Y-4612930D01*
X-9268220Y-4651030D02*
X-9344420Y-4651030D01*
X-9344420Y-4574830D01*
X-9268220Y-4574830D01*
X-9344420Y-4612930D02*
X-9293620Y-4612930D01*
X-9242820Y-4638330D02*
X-9230120Y-4651030D01*
X-9179320Y-4651030D01*
X-9166620Y-4638330D01*
X-9166620Y-4625630D01*
X-9179320Y-4612930D01*
X-9230120Y-4612930D01*
X-9242820Y-4600230D01*
X-9242820Y-4587530D01*
X-9230120Y-4574830D01*
X-9179320Y-4574830D01*
X-9166620Y-4587530D01*
X-8574800Y-4612930D02*
X-8587500Y-4600230D01*
X-8587500Y-4587530D01*
X-8574800Y-4574830D01*
X-8536700Y-4574830D01*
X-8524000Y-4587530D01*
X-8524000Y-4600230D01*
X-8536700Y-4612930D01*
X-8574800Y-4612930D01*
X-8587500Y-4625630D01*
X-8587500Y-4638330D01*
X-8574800Y-4651030D01*
X-8536700Y-4651030D01*
X-8524000Y-4638330D01*
X-8524000Y-4625630D01*
X-8536700Y-4612930D01*
M02*
