G04 PROTEUS GERBER X2 FILE*
%TF.GenerationSoftware,Labcenter,Proteus,8.17-SP2-Build37159*%
%TF.CreationDate,2025-10-20T01:17:28+00:00*%
%TF.FileFunction,Soldermask,Bot*%
%TF.FilePolarity,Negative*%
%TF.Part,Single*%
%TF.SameCoordinates,{dfd261b3-5dba-4516-bcbd-5d7d19192189}*%
%FSLAX45Y45*%
%MOMM*%
G01*
%TA.AperFunction,Material*%
%ADD22C,1.778000*%
%TA.AperFunction,Material*%
%ADD23C,3.048000*%
%TA.AperFunction,Material*%
%ADD24C,4.064000*%
%ADD25C,2.032000*%
%AMPPAD018*
4,1,36,
-1.143000,-1.016000,
-1.143000,1.016000,
-1.140420,1.041590,
-1.133020,1.065430,
-1.121310,1.087000,
-1.105800,1.105800,
-1.087000,1.121310,
-1.065430,1.133020,
-1.041590,1.140420,
-1.016000,1.143000,
1.016000,1.143000,
1.041590,1.140420,
1.065430,1.133020,
1.087000,1.121310,
1.105800,1.105800,
1.121310,1.087000,
1.133020,1.065430,
1.140420,1.041590,
1.143000,1.016000,
1.143000,-1.016000,
1.140420,-1.041590,
1.133020,-1.065430,
1.121310,-1.087000,
1.105800,-1.105800,
1.087000,-1.121310,
1.065430,-1.133020,
1.041590,-1.140420,
1.016000,-1.143000,
-1.016000,-1.143000,
-1.041590,-1.140420,
-1.065430,-1.133020,
-1.087000,-1.121310,
-1.105800,-1.105800,
-1.121310,-1.087000,
-1.133020,-1.065430,
-1.140420,-1.041590,
-1.143000,-1.016000,
0*%
%TA.AperFunction,Material*%
%ADD26PPAD018*%
%TA.AperFunction,Material*%
%ADD27C,2.794000*%
%AMPPAD020*
4,1,36,
-0.635000,0.762000,
0.635000,0.762000,
0.660590,0.759420,
0.684430,0.752020,
0.706000,0.740310,
0.724800,0.724800,
0.740310,0.706000,
0.752020,0.684430,
0.759420,0.660590,
0.762000,0.635000,
0.762000,-0.635000,
0.759420,-0.660590,
0.752020,-0.684430,
0.740310,-0.706000,
0.724800,-0.724800,
0.706000,-0.740310,
0.684430,-0.752020,
0.660590,-0.759420,
0.635000,-0.762000,
-0.635000,-0.762000,
-0.660590,-0.759420,
-0.684430,-0.752020,
-0.706000,-0.740310,
-0.724800,-0.724800,
-0.740310,-0.706000,
-0.752020,-0.684430,
-0.759420,-0.660590,
-0.762000,-0.635000,
-0.762000,0.635000,
-0.759420,0.660590,
-0.752020,0.684430,
-0.740310,0.706000,
-0.724800,0.724800,
-0.706000,0.740310,
-0.684430,0.752020,
-0.660590,0.759420,
-0.635000,0.762000,
0*%
%TA.AperFunction,Material*%
%ADD28PPAD020*%
%ADD29C,1.524000*%
%TA.AperFunction,Material*%
%ADD72C,1.270000*%
%TA.AperFunction,Profile*%
%ADD19C,0.101600*%
%TD.AperFunction*%
D22*
X-7900000Y+1710000D03*
X+2740000Y+2270000D03*
X+2240000Y+2270000D03*
D23*
X-1330000Y+1620000D03*
X-480000Y+1620000D03*
X+370000Y+1620000D03*
X+1220000Y+1620000D03*
D24*
X+1450000Y-1300000D03*
D25*
X+2700000Y+100000D03*
X+2700000Y-900000D03*
D24*
X+370000Y+480000D03*
X+1150000Y+480000D03*
D25*
X-3650000Y+0D03*
X-3650000Y+500000D03*
X-700000Y-500000D03*
X-700000Y+1000000D03*
D26*
X-4300000Y-554000D03*
X-4300000Y-300000D03*
X-4300000Y-46000D03*
D27*
X-3500000Y-1200000D03*
X-3500000Y-2400000D03*
X-3700000Y-1800000D03*
X-2280000Y-1200000D03*
X-2280000Y-2400000D03*
D22*
X-7597460Y+338000D03*
X-7343460Y+338000D03*
X-7089460Y+338000D03*
X-6835460Y+338000D03*
X-6581460Y+338000D03*
X-6327460Y+338000D03*
X-6073460Y+338000D03*
X-5819460Y+338000D03*
X-5565460Y+338000D03*
X-5311460Y+338000D03*
X-5057460Y+338000D03*
X-4803460Y+338000D03*
X-4549460Y+338000D03*
X-4295460Y+338000D03*
X-4298000Y+1100000D03*
X-4552000Y+1100000D03*
X-4806000Y+1100000D03*
X-5060000Y+1100000D03*
X-5314000Y+1100000D03*
X-5568000Y+1100000D03*
X-5822000Y+1100000D03*
X-6076000Y+1100000D03*
X-6330000Y+1100000D03*
X-6584000Y+1100000D03*
X-6838000Y+1100000D03*
X-7092000Y+1100000D03*
X-7346000Y+1100000D03*
X-7600000Y+1100000D03*
X-10000000Y+1900000D03*
X-10000000Y+2400000D03*
X-10000000Y+500000D03*
X-10000000Y+1000000D03*
X-10000000Y-900000D03*
X-10000000Y-400000D03*
X-10000000Y-2200000D03*
X-10000000Y-1700000D03*
X-8500000Y+1700000D03*
X-9500000Y+1700000D03*
X-8500000Y+300000D03*
X-9500000Y+300000D03*
X-8500000Y-1100000D03*
X-9500000Y-1100000D03*
X-8500000Y-2500000D03*
X-9500000Y-2500000D03*
D28*
X-9160000Y+540000D03*
D29*
X-8906000Y+540000D03*
X-8906000Y+1302000D03*
X-9160000Y+1302000D03*
D28*
X-9154000Y-862000D03*
D29*
X-8900000Y-862000D03*
X-8900000Y-100000D03*
X-9154000Y-100000D03*
D28*
X-9154000Y-2262000D03*
D29*
X-8900000Y-2262000D03*
X-8900000Y-1500000D03*
X-9154000Y-1500000D03*
D22*
X-8300000Y-1600000D03*
X-8300000Y-2600000D03*
X-8000000Y-1600000D03*
X-8000000Y-2600000D03*
X-7700000Y-1600000D03*
X-7700000Y-2600000D03*
X-7400000Y-1600000D03*
X-7400000Y-2600000D03*
D28*
X-4700000Y-2100000D03*
D29*
X-4446000Y-2100000D03*
X-4446000Y-1338000D03*
X-4700000Y-1338000D03*
D72*
X-6900000Y-2000000D03*
X-6400000Y-2000000D03*
D29*
X-6900000Y-2200000D03*
X-6900000Y-2450000D03*
X-6400000Y-2200000D03*
X-6400000Y-2450000D03*
D23*
X-5220000Y+1630000D03*
X-4370000Y+1630000D03*
X-3520000Y+1630000D03*
X-2670000Y+1630000D03*
D28*
X-9100000Y+2050000D03*
D29*
X-8846000Y+2050000D03*
X-8846000Y+2812000D03*
X-9100000Y+2812000D03*
D22*
X-5680000Y-2400000D03*
X-4680000Y-2400000D03*
D19*
X+3390000Y+2940000D02*
X+3450453Y+2933904D01*
X+3506763Y+2916421D01*
X+3557722Y+2888758D01*
X+3602122Y+2852122D01*
X+3638758Y+2807722D01*
X+3666421Y+2756763D01*
X+3683904Y+2700453D01*
X+3690000Y+2640000D01*
X+3390000Y-2760000D02*
X+3450453Y-2753904D01*
X+3506763Y-2736421D01*
X+3557722Y-2708758D01*
X+3602122Y-2672122D01*
X+3638758Y-2627722D01*
X+3666421Y-2576763D01*
X+3683904Y-2520453D01*
X+3690000Y-2460000D01*
X-10810000Y-2460000D02*
X-10803904Y-2520453D01*
X-10786421Y-2576763D01*
X-10758758Y-2627722D01*
X-10722122Y-2672122D01*
X-10677722Y-2708758D01*
X-10626763Y-2736421D01*
X-10570453Y-2753904D01*
X-10510000Y-2760000D01*
X-10810000Y+2640000D02*
X-10803904Y+2700453D01*
X-10786421Y+2756763D01*
X-10758758Y+2807722D01*
X-10722122Y+2852122D01*
X-10677722Y+2888758D01*
X-10626763Y+2916421D01*
X-10570453Y+2933904D01*
X-10510000Y+2940000D01*
X-10810000Y-2460000D02*
X-10810000Y+2640000D01*
X-10510000Y+2940000D02*
X+3390000Y+2940000D01*
X+3690000Y+2640000D02*
X+3690000Y-2460000D01*
X+3390000Y-2760000D02*
X-10510000Y-2760000D01*
M02*
